<mxfile host="app.diagrams.net" modified="2022-06-07T15:11:55.111Z" agent="5.0 (Windows NT 10.0; Win64; x64) AppleWebKit/537.36 (KHTML, like Gecko) Chrome/102.0.5005.63 Safari/537.36 Edg/102.0.1245.33" etag="QJVdUnAbrIGEJmLGWZyY" version="19.0.0" type="github" pages="6">
  <diagram id="v0wFVRPT47lHuX_UzLUi" name="第 2 页">
    <mxGraphModel dx="979" dy="550" grid="1" gridSize="10" guides="1" tooltips="1" connect="1" arrows="1" fold="1" page="1" pageScale="1" pageWidth="827" pageHeight="1169" math="0" shadow="0">
      <root>
        <mxCell id="0" />
        <mxCell id="1" parent="0" />
        <mxCell id="wtybLxqtFGFPUKRgiPWA-1" value="" style="shape=table;startSize=0;container=1;collapsible=0;childLayout=tableLayout;fillColor=#d5e8d4;strokeColor=#82b366;" parent="1" vertex="1">
          <mxGeometry x="366" y="30" width="160" height="230" as="geometry" />
        </mxCell>
        <mxCell id="wtybLxqtFGFPUKRgiPWA-2" value="" style="shape=tableRow;horizontal=0;startSize=0;swimlaneHead=0;swimlaneBody=0;top=0;left=0;bottom=0;right=0;collapsible=0;dropTarget=0;fillColor=none;points=[[0,0.5],[1,0.5]];portConstraint=eastwest;" parent="wtybLxqtFGFPUKRgiPWA-1" vertex="1">
          <mxGeometry width="160" height="58" as="geometry" />
        </mxCell>
        <mxCell id="wtybLxqtFGFPUKRgiPWA-3" value="&lt;font style=&quot;font-size: 18px;&quot;&gt;&lt;b&gt;对象头信息&lt;/b&gt;&lt;/font&gt;" style="shape=partialRectangle;html=1;whiteSpace=wrap;connectable=0;overflow=hidden;fillColor=none;top=0;left=0;bottom=0;right=0;pointerEvents=1;" parent="wtybLxqtFGFPUKRgiPWA-2" vertex="1">
          <mxGeometry width="160" height="58" as="geometry">
            <mxRectangle width="160" height="58" as="alternateBounds" />
          </mxGeometry>
        </mxCell>
        <mxCell id="wtybLxqtFGFPUKRgiPWA-4" value="" style="shape=tableRow;horizontal=0;startSize=0;swimlaneHead=0;swimlaneBody=0;top=0;left=0;bottom=0;right=0;collapsible=0;dropTarget=0;fillColor=none;points=[[0,0.5],[1,0.5]];portConstraint=eastwest;" parent="wtybLxqtFGFPUKRgiPWA-1" vertex="1">
          <mxGeometry y="58" width="160" height="57" as="geometry" />
        </mxCell>
        <mxCell id="wtybLxqtFGFPUKRgiPWA-5" value="&lt;font style=&quot;font-size: 24px;&quot;&gt;&lt;b&gt;id&lt;/b&gt;&lt;/font&gt;" style="shape=partialRectangle;html=1;whiteSpace=wrap;connectable=0;overflow=hidden;fillColor=none;top=0;left=0;bottom=0;right=0;pointerEvents=1;" parent="wtybLxqtFGFPUKRgiPWA-4" vertex="1">
          <mxGeometry width="160" height="57" as="geometry">
            <mxRectangle width="160" height="57" as="alternateBounds" />
          </mxGeometry>
        </mxCell>
        <mxCell id="wtybLxqtFGFPUKRgiPWA-6" value="" style="shape=tableRow;horizontal=0;startSize=0;swimlaneHead=0;swimlaneBody=0;top=0;left=0;bottom=0;right=0;collapsible=0;dropTarget=0;fillColor=none;points=[[0,0.5],[1,0.5]];portConstraint=eastwest;" parent="wtybLxqtFGFPUKRgiPWA-1" vertex="1">
          <mxGeometry y="115" width="160" height="58" as="geometry" />
        </mxCell>
        <mxCell id="wtybLxqtFGFPUKRgiPWA-7" value="&lt;font style=&quot;font-size: 24px;&quot;&gt;&lt;b&gt;name&lt;/b&gt;&lt;/font&gt;" style="shape=partialRectangle;html=1;whiteSpace=wrap;connectable=0;overflow=hidden;fillColor=none;top=0;left=0;bottom=0;right=0;pointerEvents=1;" parent="wtybLxqtFGFPUKRgiPWA-6" vertex="1">
          <mxGeometry width="160" height="58" as="geometry">
            <mxRectangle width="160" height="58" as="alternateBounds" />
          </mxGeometry>
        </mxCell>
        <mxCell id="wtybLxqtFGFPUKRgiPWA-8" value="" style="shape=tableRow;horizontal=0;startSize=0;swimlaneHead=0;swimlaneBody=0;top=0;left=0;bottom=0;right=0;collapsible=0;dropTarget=0;fillColor=none;points=[[0,0.5],[1,0.5]];portConstraint=eastwest;" parent="wtybLxqtFGFPUKRgiPWA-1" vertex="1">
          <mxGeometry y="173" width="160" height="57" as="geometry" />
        </mxCell>
        <mxCell id="wtybLxqtFGFPUKRgiPWA-9" value="&lt;font style=&quot;font-size: 24px;&quot;&gt;&lt;b&gt;age&lt;/b&gt;&lt;/font&gt;" style="shape=partialRectangle;html=1;whiteSpace=wrap;connectable=0;overflow=hidden;fillColor=none;top=0;left=0;bottom=0;right=0;pointerEvents=1;" parent="wtybLxqtFGFPUKRgiPWA-8" vertex="1">
          <mxGeometry width="160" height="57" as="geometry">
            <mxRectangle width="160" height="57" as="alternateBounds" />
          </mxGeometry>
        </mxCell>
        <mxCell id="wtybLxqtFGFPUKRgiPWA-10" value="&lt;font style=&quot;font-size: 24px;&quot;&gt;&lt;b style=&quot;&quot;&gt;int:id&lt;br&gt;int:name&lt;br&gt;int:age&lt;/b&gt;&lt;/font&gt;" style="rounded=1;whiteSpace=wrap;html=1;" parent="1" vertex="1">
          <mxGeometry y="60" width="220" height="120" as="geometry" />
        </mxCell>
        <mxCell id="wtybLxqtFGFPUKRgiPWA-11" value="&lt;b&gt;&lt;font color=&quot;#ff3333&quot;&gt;User&lt;/font&gt;&lt;/b&gt;" style="text;html=1;strokeColor=none;fillColor=none;align=center;verticalAlign=middle;whiteSpace=wrap;rounded=0;" parent="1" vertex="1">
          <mxGeometry x="10" y="70" width="60" height="30" as="geometry" />
        </mxCell>
        <mxCell id="wtybLxqtFGFPUKRgiPWA-13" value="offset:0" style="text;html=1;align=center;verticalAlign=middle;resizable=0;points=[];autosize=1;strokeColor=none;fillColor=none;fontSize=24;fontColor=#FF3333;" parent="1" vertex="1">
          <mxGeometry x="261" y="40" width="90" height="30" as="geometry" />
        </mxCell>
        <mxCell id="wtybLxqtFGFPUKRgiPWA-14" value="offset:12" style="text;html=1;align=center;verticalAlign=middle;resizable=0;points=[];autosize=1;strokeColor=none;fillColor=none;fontSize=24;fontColor=#FF3333;" parent="1" vertex="1">
          <mxGeometry x="251" y="105" width="110" height="30" as="geometry" />
        </mxCell>
        <mxCell id="wtybLxqtFGFPUKRgiPWA-15" value="offset:16" style="text;html=1;align=center;verticalAlign=middle;resizable=0;points=[];autosize=1;strokeColor=none;fillColor=none;fontSize=24;fontColor=#FF3333;" parent="1" vertex="1">
          <mxGeometry x="251" y="160" width="110" height="30" as="geometry" />
        </mxCell>
        <mxCell id="wtybLxqtFGFPUKRgiPWA-16" value="offset:20" style="text;html=1;align=center;verticalAlign=middle;resizable=0;points=[];autosize=1;strokeColor=none;fillColor=none;fontSize=24;fontColor=#FF3333;" parent="1" vertex="1">
          <mxGeometry x="250" y="220" width="110" height="30" as="geometry" />
        </mxCell>
      </root>
    </mxGraphModel>
  </diagram>
  <diagram name="对象内存实例存储" id="raveXd1d4iCMZDWfdN9r">
    <mxGraphModel dx="979" dy="1719" grid="1" gridSize="10" guides="1" tooltips="1" connect="1" arrows="1" fold="1" page="1" pageScale="1" pageWidth="827" pageHeight="1169" math="0" shadow="0">
      <root>
        <mxCell id="zeQS5juVLi7mEmhHg8pD-0" />
        <mxCell id="zeQS5juVLi7mEmhHg8pD-1" parent="zeQS5juVLi7mEmhHg8pD-0" />
        <mxCell id="zeQS5juVLi7mEmhHg8pD-2" value="" style="shape=table;startSize=0;container=1;collapsible=0;childLayout=tableLayout;fillColor=#60a917;strokeColor=#2D7600;sketch=1;fontColor=#ffffff;shadow=0;rounded=1;swimlaneLine=1;" vertex="1" parent="zeQS5juVLi7mEmhHg8pD-1">
          <mxGeometry x="570" y="40" width="210" height="230" as="geometry" />
        </mxCell>
        <mxCell id="zeQS5juVLi7mEmhHg8pD-3" value="" style="shape=tableRow;horizontal=0;startSize=0;swimlaneHead=0;swimlaneBody=0;top=0;left=0;bottom=0;right=0;collapsible=0;dropTarget=0;fillColor=none;points=[[0,0.5],[1,0.5]];portConstraint=eastwest;" vertex="1" parent="zeQS5juVLi7mEmhHg8pD-2">
          <mxGeometry width="210" height="58" as="geometry" />
        </mxCell>
        <mxCell id="zeQS5juVLi7mEmhHg8pD-4" value="&lt;font style=&quot;font-size: 18px;&quot;&gt;&lt;b&gt;object header&lt;/b&gt;&lt;/font&gt;" style="shape=partialRectangle;html=1;whiteSpace=wrap;connectable=0;overflow=hidden;fillColor=none;top=0;left=0;bottom=0;right=0;pointerEvents=1;" vertex="1" parent="zeQS5juVLi7mEmhHg8pD-3">
          <mxGeometry width="210" height="58" as="geometry">
            <mxRectangle width="210" height="58" as="alternateBounds" />
          </mxGeometry>
        </mxCell>
        <mxCell id="zeQS5juVLi7mEmhHg8pD-5" value="" style="shape=tableRow;horizontal=0;startSize=0;swimlaneHead=0;swimlaneBody=0;top=0;left=0;bottom=0;right=0;collapsible=0;dropTarget=0;fillColor=none;points=[[0,0.5],[1,0.5]];portConstraint=eastwest;" vertex="1" parent="zeQS5juVLi7mEmhHg8pD-2">
          <mxGeometry y="58" width="210" height="57" as="geometry" />
        </mxCell>
        <mxCell id="zeQS5juVLi7mEmhHg8pD-6" value="&lt;font style=&quot;font-size: 24px;&quot;&gt;&lt;b&gt;id&lt;/b&gt;&lt;/font&gt;" style="shape=partialRectangle;html=1;whiteSpace=wrap;connectable=0;overflow=hidden;fillColor=none;top=0;left=0;bottom=0;right=0;pointerEvents=1;" vertex="1" parent="zeQS5juVLi7mEmhHg8pD-5">
          <mxGeometry width="210" height="57" as="geometry">
            <mxRectangle width="210" height="57" as="alternateBounds" />
          </mxGeometry>
        </mxCell>
        <mxCell id="zeQS5juVLi7mEmhHg8pD-7" value="" style="shape=tableRow;horizontal=0;startSize=0;swimlaneHead=0;swimlaneBody=0;top=0;left=0;bottom=0;right=0;collapsible=0;dropTarget=0;fillColor=none;points=[[0,0.5],[1,0.5]];portConstraint=eastwest;" vertex="1" parent="zeQS5juVLi7mEmhHg8pD-2">
          <mxGeometry y="115" width="210" height="58" as="geometry" />
        </mxCell>
        <mxCell id="zeQS5juVLi7mEmhHg8pD-8" value="&lt;font style=&quot;font-size: 24px;&quot;&gt;&lt;b&gt;name&lt;/b&gt;&lt;/font&gt;" style="shape=partialRectangle;html=1;whiteSpace=wrap;connectable=0;overflow=hidden;fillColor=none;top=0;left=0;bottom=0;right=0;pointerEvents=1;" vertex="1" parent="zeQS5juVLi7mEmhHg8pD-7">
          <mxGeometry width="210" height="58" as="geometry">
            <mxRectangle width="210" height="58" as="alternateBounds" />
          </mxGeometry>
        </mxCell>
        <mxCell id="zeQS5juVLi7mEmhHg8pD-9" value="" style="shape=tableRow;horizontal=0;startSize=0;swimlaneHead=0;swimlaneBody=0;top=0;left=0;bottom=0;right=0;collapsible=0;dropTarget=0;fillColor=none;points=[[0,0.5],[1,0.5]];portConstraint=eastwest;" vertex="1" parent="zeQS5juVLi7mEmhHg8pD-2">
          <mxGeometry y="173" width="210" height="57" as="geometry" />
        </mxCell>
        <mxCell id="zeQS5juVLi7mEmhHg8pD-10" value="&lt;font style=&quot;font-size: 24px;&quot;&gt;&lt;b&gt;age&lt;/b&gt;&lt;/font&gt;" style="shape=partialRectangle;html=1;whiteSpace=wrap;connectable=0;overflow=hidden;fillColor=none;top=0;left=0;bottom=0;right=0;pointerEvents=1;" vertex="1" parent="zeQS5juVLi7mEmhHg8pD-9">
          <mxGeometry width="210" height="57" as="geometry">
            <mxRectangle width="210" height="57" as="alternateBounds" />
          </mxGeometry>
        </mxCell>
        <mxCell id="zeQS5juVLi7mEmhHg8pD-11" value="&lt;font style=&quot;font-size: 24px;&quot;&gt;&lt;b style=&quot;&quot;&gt;int:id&lt;br&gt;int:name&lt;br&gt;int:age&lt;/b&gt;&lt;/font&gt;" style="rounded=1;whiteSpace=wrap;html=1;fillColor=#dae8fc;strokeColor=#6c8ebf;sketch=1;" vertex="1" parent="zeQS5juVLi7mEmhHg8pD-1">
          <mxGeometry y="60" width="220" height="120" as="geometry" />
        </mxCell>
        <mxCell id="zeQS5juVLi7mEmhHg8pD-12" value="&lt;b&gt;&lt;font color=&quot;#ff3333&quot;&gt;User&lt;/font&gt;&lt;/b&gt;" style="text;html=1;strokeColor=#666666;fillColor=#f5f5f5;align=center;verticalAlign=middle;whiteSpace=wrap;rounded=0;sketch=1;fontColor=#333333;" vertex="1" parent="zeQS5juVLi7mEmhHg8pD-1">
          <mxGeometry x="10" y="70" width="60" height="30" as="geometry" />
        </mxCell>
        <mxCell id="3NF3HjshYoo5h7Xvv54N-6" value="&lt;span style=&quot;font-size: 24px;&quot;&gt;&lt;b style=&quot;&quot;&gt;&lt;font color=&quot;#000066&quot;&gt;offset&lt;/font&gt;&lt;/b&gt;&lt;/span&gt;" style="text;html=1;strokeColor=#666666;fillColor=#f5f5f5;align=center;verticalAlign=middle;whiteSpace=wrap;rounded=0;sketch=1;fontColor=#333333;" vertex="1" parent="zeQS5juVLi7mEmhHg8pD-1">
          <mxGeometry x="390" y="-10" width="70" height="30" as="geometry" />
        </mxCell>
        <mxCell id="3NF3HjshYoo5h7Xvv54N-20" value="&lt;span style=&quot;font-size: 24px;&quot;&gt;&lt;b style=&quot;&quot;&gt;&lt;font color=&quot;#4c0099&quot;&gt;size&lt;/font&gt;&lt;/b&gt;&lt;/span&gt;" style="text;html=1;strokeColor=#9673a6;fillColor=#e1d5e7;align=center;verticalAlign=middle;whiteSpace=wrap;rounded=0;sketch=1;" vertex="1" parent="zeQS5juVLi7mEmhHg8pD-1">
          <mxGeometry x="490" y="-10" width="60" height="30" as="geometry" />
        </mxCell>
        <mxCell id="3NF3HjshYoo5h7Xvv54N-21" value="&lt;span style=&quot;font-size: 24px;&quot;&gt;&lt;b style=&quot;&quot;&gt;&lt;font color=&quot;#006600&quot;&gt;object&lt;/font&gt;&lt;/b&gt;&lt;/span&gt;" style="text;html=1;strokeColor=#2D7600;fillColor=#60a917;align=center;verticalAlign=middle;whiteSpace=wrap;rounded=1;fontColor=#ffffff;sketch=1;" vertex="1" parent="zeQS5juVLi7mEmhHg8pD-1">
          <mxGeometry x="630" y="-10" width="114" height="30" as="geometry" />
        </mxCell>
        <mxCell id="3NF3HjshYoo5h7Xvv54N-22" value="" style="shape=table;startSize=0;container=1;collapsible=0;childLayout=tableLayout;rounded=1;shadow=1;sketch=1;fontSize=24;fillColor=#e1d5e7;strokeColor=#9673a6;" vertex="1" parent="zeQS5juVLi7mEmhHg8pD-1">
          <mxGeometry x="490" y="40" width="60" height="230" as="geometry" />
        </mxCell>
        <mxCell id="3NF3HjshYoo5h7Xvv54N-23" value="" style="shape=tableRow;horizontal=0;startSize=0;swimlaneHead=0;swimlaneBody=0;top=0;left=0;bottom=0;right=0;collapsible=0;dropTarget=0;fillColor=none;points=[[0,0.5],[1,0.5]];portConstraint=eastwest;rounded=1;shadow=1;sketch=1;fontSize=24;" vertex="1" parent="3NF3HjshYoo5h7Xvv54N-22">
          <mxGeometry width="60" height="58" as="geometry" />
        </mxCell>
        <mxCell id="3NF3HjshYoo5h7Xvv54N-24" value="12" style="shape=partialRectangle;html=1;whiteSpace=wrap;connectable=0;overflow=hidden;fillColor=none;top=0;left=0;bottom=0;right=0;pointerEvents=1;rounded=1;shadow=1;sketch=1;fontSize=24;" vertex="1" parent="3NF3HjshYoo5h7Xvv54N-23">
          <mxGeometry width="60" height="58" as="geometry">
            <mxRectangle width="60" height="58" as="alternateBounds" />
          </mxGeometry>
        </mxCell>
        <mxCell id="3NF3HjshYoo5h7Xvv54N-25" value="" style="shape=tableRow;horizontal=0;startSize=0;swimlaneHead=0;swimlaneBody=0;top=0;left=0;bottom=0;right=0;collapsible=0;dropTarget=0;fillColor=none;points=[[0,0.5],[1,0.5]];portConstraint=eastwest;rounded=1;shadow=1;sketch=1;fontSize=24;" vertex="1" parent="3NF3HjshYoo5h7Xvv54N-22">
          <mxGeometry y="58" width="60" height="57" as="geometry" />
        </mxCell>
        <mxCell id="3NF3HjshYoo5h7Xvv54N-26" value="4" style="shape=partialRectangle;html=1;whiteSpace=wrap;connectable=0;overflow=hidden;fillColor=none;top=0;left=0;bottom=0;right=0;pointerEvents=1;rounded=1;shadow=1;sketch=1;fontSize=24;" vertex="1" parent="3NF3HjshYoo5h7Xvv54N-25">
          <mxGeometry width="60" height="57" as="geometry">
            <mxRectangle width="60" height="57" as="alternateBounds" />
          </mxGeometry>
        </mxCell>
        <mxCell id="3NF3HjshYoo5h7Xvv54N-27" value="" style="shape=tableRow;horizontal=0;startSize=0;swimlaneHead=0;swimlaneBody=0;top=0;left=0;bottom=0;right=0;collapsible=0;dropTarget=0;fillColor=none;points=[[0,0.5],[1,0.5]];portConstraint=eastwest;rounded=1;shadow=1;sketch=1;fontSize=24;" vertex="1" parent="3NF3HjshYoo5h7Xvv54N-22">
          <mxGeometry y="115" width="60" height="58" as="geometry" />
        </mxCell>
        <mxCell id="3NF3HjshYoo5h7Xvv54N-28" value="4" style="shape=partialRectangle;html=1;whiteSpace=wrap;connectable=0;overflow=hidden;fillColor=none;top=0;left=0;bottom=0;right=0;pointerEvents=1;rounded=1;shadow=1;sketch=1;fontSize=24;" vertex="1" parent="3NF3HjshYoo5h7Xvv54N-27">
          <mxGeometry width="60" height="58" as="geometry">
            <mxRectangle width="60" height="58" as="alternateBounds" />
          </mxGeometry>
        </mxCell>
        <mxCell id="3NF3HjshYoo5h7Xvv54N-29" value="" style="shape=tableRow;horizontal=0;startSize=0;swimlaneHead=0;swimlaneBody=0;top=0;left=0;bottom=0;right=0;collapsible=0;dropTarget=0;fillColor=none;points=[[0,0.5],[1,0.5]];portConstraint=eastwest;rounded=1;shadow=1;sketch=1;fontSize=24;" vertex="1" parent="3NF3HjshYoo5h7Xvv54N-22">
          <mxGeometry y="173" width="60" height="57" as="geometry" />
        </mxCell>
        <mxCell id="3NF3HjshYoo5h7Xvv54N-30" value="4" style="shape=partialRectangle;html=1;whiteSpace=wrap;connectable=0;overflow=hidden;fillColor=none;top=0;left=0;bottom=0;right=0;pointerEvents=1;rounded=1;shadow=1;sketch=1;fontSize=24;" vertex="1" parent="3NF3HjshYoo5h7Xvv54N-29">
          <mxGeometry width="60" height="57" as="geometry">
            <mxRectangle width="60" height="57" as="alternateBounds" />
          </mxGeometry>
        </mxCell>
        <mxCell id="3NF3HjshYoo5h7Xvv54N-31" value="" style="shape=table;startSize=0;container=1;collapsible=0;childLayout=tableLayout;rounded=1;shadow=1;sketch=1;fontSize=24;fillColor=#dae8fc;strokeColor=#6c8ebf;" vertex="1" parent="zeQS5juVLi7mEmhHg8pD-1">
          <mxGeometry x="400" y="40" width="60" height="230" as="geometry" />
        </mxCell>
        <mxCell id="3NF3HjshYoo5h7Xvv54N-32" value="" style="shape=tableRow;horizontal=0;startSize=0;swimlaneHead=0;swimlaneBody=0;top=0;left=0;bottom=0;right=0;collapsible=0;dropTarget=0;fillColor=none;points=[[0,0.5],[1,0.5]];portConstraint=eastwest;rounded=1;shadow=1;sketch=1;fontSize=24;" vertex="1" parent="3NF3HjshYoo5h7Xvv54N-31">
          <mxGeometry width="60" height="58" as="geometry" />
        </mxCell>
        <mxCell id="3NF3HjshYoo5h7Xvv54N-33" value="0" style="shape=partialRectangle;html=1;whiteSpace=wrap;connectable=0;overflow=hidden;fillColor=none;top=0;left=0;bottom=0;right=0;pointerEvents=1;rounded=1;shadow=1;sketch=1;fontSize=24;" vertex="1" parent="3NF3HjshYoo5h7Xvv54N-32">
          <mxGeometry width="60" height="58" as="geometry">
            <mxRectangle width="60" height="58" as="alternateBounds" />
          </mxGeometry>
        </mxCell>
        <mxCell id="3NF3HjshYoo5h7Xvv54N-34" value="" style="shape=tableRow;horizontal=0;startSize=0;swimlaneHead=0;swimlaneBody=0;top=0;left=0;bottom=0;right=0;collapsible=0;dropTarget=0;fillColor=none;points=[[0,0.5],[1,0.5]];portConstraint=eastwest;rounded=1;shadow=1;sketch=1;fontSize=24;" vertex="1" parent="3NF3HjshYoo5h7Xvv54N-31">
          <mxGeometry y="58" width="60" height="57" as="geometry" />
        </mxCell>
        <mxCell id="3NF3HjshYoo5h7Xvv54N-35" value="12" style="shape=partialRectangle;html=1;whiteSpace=wrap;connectable=0;overflow=hidden;fillColor=none;top=0;left=0;bottom=0;right=0;pointerEvents=1;rounded=1;shadow=1;sketch=1;fontSize=24;" vertex="1" parent="3NF3HjshYoo5h7Xvv54N-34">
          <mxGeometry width="60" height="57" as="geometry">
            <mxRectangle width="60" height="57" as="alternateBounds" />
          </mxGeometry>
        </mxCell>
        <mxCell id="3NF3HjshYoo5h7Xvv54N-36" value="" style="shape=tableRow;horizontal=0;startSize=0;swimlaneHead=0;swimlaneBody=0;top=0;left=0;bottom=0;right=0;collapsible=0;dropTarget=0;fillColor=none;points=[[0,0.5],[1,0.5]];portConstraint=eastwest;rounded=1;shadow=1;sketch=1;fontSize=24;" vertex="1" parent="3NF3HjshYoo5h7Xvv54N-31">
          <mxGeometry y="115" width="60" height="58" as="geometry" />
        </mxCell>
        <mxCell id="3NF3HjshYoo5h7Xvv54N-37" value="16" style="shape=partialRectangle;html=1;whiteSpace=wrap;connectable=0;overflow=hidden;fillColor=none;top=0;left=0;bottom=0;right=0;pointerEvents=1;rounded=1;shadow=1;sketch=1;fontSize=24;" vertex="1" parent="3NF3HjshYoo5h7Xvv54N-36">
          <mxGeometry width="60" height="58" as="geometry">
            <mxRectangle width="60" height="58" as="alternateBounds" />
          </mxGeometry>
        </mxCell>
        <mxCell id="3NF3HjshYoo5h7Xvv54N-38" value="" style="shape=tableRow;horizontal=0;startSize=0;swimlaneHead=0;swimlaneBody=0;top=0;left=0;bottom=0;right=0;collapsible=0;dropTarget=0;fillColor=none;points=[[0,0.5],[1,0.5]];portConstraint=eastwest;rounded=1;shadow=1;sketch=1;fontSize=24;" vertex="1" parent="3NF3HjshYoo5h7Xvv54N-31">
          <mxGeometry y="173" width="60" height="57" as="geometry" />
        </mxCell>
        <mxCell id="3NF3HjshYoo5h7Xvv54N-39" value="20" style="shape=partialRectangle;html=1;whiteSpace=wrap;connectable=0;overflow=hidden;fillColor=none;top=0;left=0;bottom=0;right=0;pointerEvents=1;rounded=1;shadow=1;sketch=1;fontSize=24;" vertex="1" parent="3NF3HjshYoo5h7Xvv54N-38">
          <mxGeometry width="60" height="57" as="geometry">
            <mxRectangle width="60" height="57" as="alternateBounds" />
          </mxGeometry>
        </mxCell>
      </root>
    </mxGraphModel>
  </diagram>
  <diagram id="OKX-Qd-M0PFWwfQ0cDPc" name="计数整体流程">
    <mxGraphModel dx="979" dy="550" grid="1" gridSize="10" guides="1" tooltips="1" connect="1" arrows="1" fold="1" page="1" pageScale="1" pageWidth="827" pageHeight="1169" math="0" shadow="0">
      <root>
        <mxCell id="0" />
        <mxCell id="1" parent="0" />
        <mxCell id="7H90CvZU77mUdk2Z1PkZ-1" style="edgeStyle=orthogonalEdgeStyle;rounded=0;orthogonalLoop=1;jettySize=auto;html=1;fontSize=18;fontColor=#000066;entryX=0.5;entryY=0;entryDx=0;entryDy=0;" parent="1" source="7H90CvZU77mUdk2Z1PkZ-3" target="7H90CvZU77mUdk2Z1PkZ-4" edge="1">
          <mxGeometry relative="1" as="geometry">
            <mxPoint x="387.5" y="1690" as="targetPoint" />
          </mxGeometry>
        </mxCell>
        <mxCell id="-48iRYR5fIM6y1EqeZnJ-1" style="edgeStyle=orthogonalEdgeStyle;rounded=0;orthogonalLoop=1;jettySize=auto;html=1;entryX=0.5;entryY=0;entryDx=0;entryDy=0;fontSize=24;fontColor=#990000;strokeWidth=1;" edge="1" parent="1" source="7H90CvZU77mUdk2Z1PkZ-3" target="7H90CvZU77mUdk2Z1PkZ-7">
          <mxGeometry relative="1" as="geometry" />
        </mxCell>
        <mxCell id="7H90CvZU77mUdk2Z1PkZ-3" value="&lt;font color=&quot;#333333&quot;&gt;CAS:baseCount&lt;/font&gt;" style="rhombus;whiteSpace=wrap;html=1;fontSize=18;fillColor=#d5e8d4;strokeColor=#82b366;shadow=1;sketch=1;" parent="1" vertex="1">
          <mxGeometry x="305" y="1440" width="165" height="100" as="geometry" />
        </mxCell>
        <mxCell id="7H90CvZU77mUdk2Z1PkZ-4" value="计数结束" style="ellipse;whiteSpace=wrap;html=1;fontSize=18;fillColor=#e1d5e7;strokeColor=#9673a6;sketch=1;" parent="1" vertex="1">
          <mxGeometry x="317.5" y="1790" width="140" height="80" as="geometry" />
        </mxCell>
        <mxCell id="7H90CvZU77mUdk2Z1PkZ-6" style="edgeStyle=orthogonalEdgeStyle;rounded=0;orthogonalLoop=1;jettySize=auto;html=1;entryX=1;entryY=0.5;entryDx=0;entryDy=0;fontSize=12;fontColor=#000066;exitX=0.379;exitY=0.995;exitDx=0;exitDy=0;exitPerimeter=0;" parent="1" source="7H90CvZU77mUdk2Z1PkZ-7" target="7H90CvZU77mUdk2Z1PkZ-4" edge="1">
          <mxGeometry relative="1" as="geometry">
            <Array as="points">
              <mxPoint x="700" y="1650" />
              <mxPoint x="700" y="1830" />
            </Array>
          </mxGeometry>
        </mxCell>
        <mxCell id="7H90CvZU77mUdk2Z1PkZ-7" value="&lt;b style=&quot;font-size: 12px;&quot;&gt;&lt;font color=&quot;#663300&quot;&gt;线程获取到&lt;/font&gt;&lt;/b&gt;&lt;span style=&quot;font-size: 12px;&quot;&gt;&lt;b&gt;&lt;font color=&quot;#663300&quot;&gt;CounterCells数组中CounterCell对象中完成计数&lt;/font&gt;&lt;/b&gt;&lt;/span&gt;" style="rounded=1;whiteSpace=wrap;html=1;fontSize=18;fillColor=#fa6800;strokeColor=#C73500;sketch=1;fontColor=#000000;" parent="1" vertex="1">
          <mxGeometry x="610" y="1570" width="180" height="80" as="geometry" />
        </mxCell>
        <mxCell id="rIE4RZqEHVGhqk2dEhAf-2" style="edgeStyle=orthogonalEdgeStyle;rounded=0;orthogonalLoop=1;jettySize=auto;html=1;entryX=0.5;entryY=0;entryDx=0;entryDy=0;fontSize=24;fontColor=#990000;strokeWidth=1;" edge="1" parent="1" source="3Dcw4WUppZ7Ek0RazQMJ-1" target="rIE4RZqEHVGhqk2dEhAf-1">
          <mxGeometry relative="1" as="geometry" />
        </mxCell>
        <mxCell id="3Dcw4WUppZ7Ek0RazQMJ-1" value="&lt;b&gt;&lt;font color=&quot;#660000&quot;&gt;多个线程同时竞争&lt;/font&gt;&lt;/b&gt;" style="ellipse;whiteSpace=wrap;html=1;fontSize=12;fillColor=#fa6800;strokeColor=#C73500;sketch=1;fontColor=#000000;" parent="1" vertex="1">
          <mxGeometry x="327.5" y="1050" width="120" height="80" as="geometry" />
        </mxCell>
        <mxCell id="rIE4RZqEHVGhqk2dEhAf-3" style="edgeStyle=orthogonalEdgeStyle;rounded=0;orthogonalLoop=1;jettySize=auto;html=1;entryX=0.5;entryY=0;entryDx=0;entryDy=0;fontSize=24;fontColor=#990000;strokeWidth=1;" edge="1" parent="1" source="rIE4RZqEHVGhqk2dEhAf-1" target="7H90CvZU77mUdk2Z1PkZ-3">
          <mxGeometry relative="1" as="geometry" />
        </mxCell>
        <mxCell id="rIE4RZqEHVGhqk2dEhAf-5" style="edgeStyle=orthogonalEdgeStyle;rounded=0;orthogonalLoop=1;jettySize=auto;html=1;entryX=0.5;entryY=0;entryDx=0;entryDy=0;fontSize=18;fontColor=#990000;strokeWidth=1;" edge="1" parent="1" source="rIE4RZqEHVGhqk2dEhAf-1" target="7H90CvZU77mUdk2Z1PkZ-7">
          <mxGeometry relative="1" as="geometry" />
        </mxCell>
        <mxCell id="rIE4RZqEHVGhqk2dEhAf-1" value="&lt;font color=&quot;#333333&quot; style=&quot;font-size: 18px;&quot;&gt;&lt;b&gt;counterCells&lt;/b&gt;&lt;/font&gt;" style="rhombus;whiteSpace=wrap;html=1;fontSize=18;fillColor=#d5e8d4;strokeColor=#82b366;shadow=1;sketch=1;" vertex="1" parent="1">
          <mxGeometry x="305" y="1240" width="165" height="100" as="geometry" />
        </mxCell>
        <mxCell id="rIE4RZqEHVGhqk2dEhAf-4" value="&lt;font color=&quot;#333333&quot;&gt;&lt;b&gt;null&lt;/b&gt;&lt;/font&gt;" style="text;html=1;strokeColor=#3A5431;fillColor=#6d8764;align=center;verticalAlign=middle;whiteSpace=wrap;rounded=1;shadow=1;glass=0;sketch=1;fontSize=18;fontColor=#ffffff;" vertex="1" parent="1">
          <mxGeometry x="300" y="1370" width="60" height="30" as="geometry" />
        </mxCell>
        <mxCell id="rIE4RZqEHVGhqk2dEhAf-6" value="&lt;font color=&quot;#333333&quot;&gt;&lt;b&gt;not&amp;nbsp; null&lt;/b&gt;&lt;/font&gt;" style="text;html=1;strokeColor=#3A5431;fillColor=#6d8764;align=center;verticalAlign=middle;whiteSpace=wrap;rounded=1;shadow=1;glass=0;sketch=1;fontSize=18;fontColor=#ffffff;" vertex="1" parent="1">
          <mxGeometry x="510" y="1240" width="140" height="40" as="geometry" />
        </mxCell>
        <mxCell id="rIE4RZqEHVGhqk2dEhAf-7" value="&lt;font style=&quot;font-size: 24px;&quot; color=&quot;#333333&quot;&gt;&lt;b&gt;成功&lt;/b&gt;&lt;/font&gt;" style="text;html=1;strokeColor=#3A5431;fillColor=#6d8764;align=center;verticalAlign=middle;whiteSpace=wrap;rounded=1;shadow=1;glass=0;sketch=1;fontSize=18;fontColor=#ffffff;" vertex="1" parent="1">
          <mxGeometry x="290" y="1640" width="90" height="40" as="geometry" />
        </mxCell>
        <mxCell id="rIE4RZqEHVGhqk2dEhAf-8" value="&lt;font color=&quot;#333333&quot;&gt;&lt;b&gt;失败&lt;/b&gt;&lt;/font&gt;" style="text;html=1;strokeColor=#3A5431;fillColor=#6d8764;align=center;verticalAlign=middle;whiteSpace=wrap;rounded=1;shadow=1;glass=0;sketch=1;fontSize=18;fontColor=#ffffff;" vertex="1" parent="1">
          <mxGeometry x="520" y="1440" width="90" height="40" as="geometry" />
        </mxCell>
      </root>
    </mxGraphModel>
  </diagram>
  <diagram name="计数原理" id="IUCF5F63w-MVxyEe8gHi">
    <mxGraphModel dx="1806" dy="550" grid="1" gridSize="10" guides="1" tooltips="1" connect="1" arrows="1" fold="1" page="1" pageScale="1" pageWidth="827" pageHeight="1169" math="0" shadow="0">
      <root>
        <mxCell id="7naOQtGflKw4HdsskOwx-0" />
        <mxCell id="7naOQtGflKw4HdsskOwx-1" parent="7naOQtGflKw4HdsskOwx-0" />
        <mxCell id="7naOQtGflKw4HdsskOwx-2" value="&lt;font color=&quot;#1a1a1a&quot;&gt;count&lt;/font&gt;" style="rounded=1;whiteSpace=wrap;html=1;fontSize=24;fontColor=#ffffff;sketch=1;fillColor=#60a917;strokeColor=#2D7600;" parent="7naOQtGflKw4HdsskOwx-1" vertex="1">
          <mxGeometry x="260" y="380" width="180" height="60" as="geometry" />
        </mxCell>
        <mxCell id="7naOQtGflKw4HdsskOwx-3" style="edgeStyle=orthogonalEdgeStyle;curved=1;rounded=0;orthogonalLoop=1;jettySize=auto;html=1;entryX=0;entryY=0.5;entryDx=0;entryDy=0;fontSize=18;fontColor=#FF3333;" parent="7naOQtGflKw4HdsskOwx-1" source="7naOQtGflKw4HdsskOwx-4" target="7naOQtGflKw4HdsskOwx-2" edge="1">
          <mxGeometry relative="1" as="geometry">
            <Array as="points">
              <mxPoint x="120" y="410" />
            </Array>
          </mxGeometry>
        </mxCell>
        <mxCell id="7naOQtGflKw4HdsskOwx-4" value="&lt;font color=&quot;#666666&quot; style=&quot;font-size: 18px;&quot;&gt;线程1&lt;/font&gt;" style="ellipse;whiteSpace=wrap;html=1;fontSize=24;fontColor=#ffffff;fillColor=#008a00;strokeColor=#005700;sketch=1;shadow=0;" parent="7naOQtGflKw4HdsskOwx-1" vertex="1">
          <mxGeometry x="80" y="200" width="90" height="70" as="geometry" />
        </mxCell>
        <mxCell id="7naOQtGflKw4HdsskOwx-5" style="edgeStyle=orthogonalEdgeStyle;curved=1;rounded=0;orthogonalLoop=1;jettySize=auto;html=1;entryX=0.107;entryY=-0.034;entryDx=0;entryDy=0;entryPerimeter=0;fontSize=18;fontColor=#FF3333;" parent="7naOQtGflKw4HdsskOwx-1" source="7naOQtGflKw4HdsskOwx-6" target="7naOQtGflKw4HdsskOwx-2" edge="1">
          <mxGeometry relative="1" as="geometry">
            <Array as="points">
              <mxPoint x="255" y="378" />
            </Array>
          </mxGeometry>
        </mxCell>
        <mxCell id="7naOQtGflKw4HdsskOwx-6" value="&lt;font color=&quot;#4d4d4d&quot; style=&quot;font-size: 18px;&quot;&gt;线程2&lt;/font&gt;" style="ellipse;whiteSpace=wrap;html=1;fontSize=24;fontColor=#ffffff;fillColor=#60a917;strokeColor=#2D7600;sketch=1;" parent="7naOQtGflKw4HdsskOwx-1" vertex="1">
          <mxGeometry x="210" y="200" width="90" height="70" as="geometry" />
        </mxCell>
        <mxCell id="7naOQtGflKw4HdsskOwx-7" style="edgeStyle=orthogonalEdgeStyle;curved=1;rounded=0;orthogonalLoop=1;jettySize=auto;html=1;entryX=0.25;entryY=0;entryDx=0;entryDy=0;fontSize=18;fontColor=#FF3333;" parent="7naOQtGflKw4HdsskOwx-1" source="7naOQtGflKw4HdsskOwx-8" target="7naOQtGflKw4HdsskOwx-2" edge="1">
          <mxGeometry relative="1" as="geometry">
            <Array as="points">
              <mxPoint x="305" y="270" />
            </Array>
          </mxGeometry>
        </mxCell>
        <mxCell id="7naOQtGflKw4HdsskOwx-8" value="&lt;font color=&quot;#4d4d4d&quot; style=&quot;font-size: 18px;&quot;&gt;线程3&lt;/font&gt;" style="ellipse;whiteSpace=wrap;html=1;fontSize=24;fontColor=#ffffff;fillColor=#60a917;strokeColor=#2D7600;sketch=1;" parent="7naOQtGflKw4HdsskOwx-1" vertex="1">
          <mxGeometry x="340" y="200" width="90" height="70" as="geometry" />
        </mxCell>
        <mxCell id="7naOQtGflKw4HdsskOwx-9" style="edgeStyle=orthogonalEdgeStyle;curved=1;rounded=0;orthogonalLoop=1;jettySize=auto;html=1;entryX=0.75;entryY=0;entryDx=0;entryDy=0;fontSize=18;fontColor=#FF3333;" parent="7naOQtGflKw4HdsskOwx-1" source="7naOQtGflKw4HdsskOwx-10" target="7naOQtGflKw4HdsskOwx-2" edge="1">
          <mxGeometry relative="1" as="geometry" />
        </mxCell>
        <mxCell id="7naOQtGflKw4HdsskOwx-10" value="&lt;font color=&quot;#4d4d4d&quot; style=&quot;font-size: 18px;&quot;&gt;线程4&lt;/font&gt;" style="ellipse;whiteSpace=wrap;html=1;fontSize=24;fontColor=#ffffff;fillColor=#60a917;strokeColor=#2D7600;sketch=1;" parent="7naOQtGflKw4HdsskOwx-1" vertex="1">
          <mxGeometry x="540" y="200" width="90" height="70" as="geometry" />
        </mxCell>
        <mxCell id="7naOQtGflKw4HdsskOwx-11" style="edgeStyle=orthogonalEdgeStyle;curved=1;rounded=0;orthogonalLoop=1;jettySize=auto;html=1;entryX=1;entryY=0.5;entryDx=0;entryDy=0;fontSize=18;fontColor=#FF3333;" parent="7naOQtGflKw4HdsskOwx-1" source="7naOQtGflKw4HdsskOwx-12" target="7naOQtGflKw4HdsskOwx-2" edge="1">
          <mxGeometry relative="1" as="geometry">
            <Array as="points">
              <mxPoint x="745" y="410" />
            </Array>
          </mxGeometry>
        </mxCell>
        <mxCell id="7naOQtGflKw4HdsskOwx-12" value="&lt;font color=&quot;#4d4d4d&quot; style=&quot;font-size: 18px;&quot;&gt;线程5&lt;/font&gt;" style="ellipse;whiteSpace=wrap;html=1;fontSize=24;fontColor=#ffffff;sketch=1;fillColor=#60a917;strokeColor=#4D4D4D;" parent="7naOQtGflKw4HdsskOwx-1" vertex="1">
          <mxGeometry x="670" y="200" width="90" height="70" as="geometry" />
        </mxCell>
        <mxCell id="ONOx8rUnY-V4LjiNuUv7-0" value="" style="shape=flexArrow;endArrow=classic;html=1;rounded=0;fontSize=18;fontColor=#FF3333;curved=1;fillColor=#6a00ff;strokeColor=#3700CC;" parent="7naOQtGflKw4HdsskOwx-1" edge="1">
          <mxGeometry width="50" height="50" relative="1" as="geometry">
            <mxPoint x="330" y="475" as="sourcePoint" />
            <mxPoint x="330" y="670" as="targetPoint" />
          </mxGeometry>
        </mxCell>
        <mxCell id="ONOx8rUnY-V4LjiNuUv7-15" style="edgeStyle=none;rounded=0;orthogonalLoop=1;jettySize=auto;html=1;entryX=0.03;entryY=0.021;entryDx=0;entryDy=0;entryPerimeter=0;fontSize=18;fontColor=#FF3333;" parent="7naOQtGflKw4HdsskOwx-1" source="ONOx8rUnY-V4LjiNuUv7-9" target="ZRcpVtV2t2ZSD3cLuIn8-1" edge="1">
          <mxGeometry relative="1" as="geometry">
            <mxPoint x="1074.4" y="1050.42" as="targetPoint" />
          </mxGeometry>
        </mxCell>
        <mxCell id="ONOx8rUnY-V4LjiNuUv7-9" value="&lt;font style=&quot;font-size: 18px;&quot;&gt;线程1&lt;/font&gt;" style="ellipse;whiteSpace=wrap;html=1;fontSize=24;fontColor=#ffffff;fillColor=#a20025;strokeColor=#6F0000;" parent="7naOQtGflKw4HdsskOwx-1" vertex="1">
          <mxGeometry x="1050" y="860" width="90" height="70" as="geometry" />
        </mxCell>
        <mxCell id="ONOx8rUnY-V4LjiNuUv7-16" style="edgeStyle=none;rounded=0;orthogonalLoop=1;jettySize=auto;html=1;entryX=0.296;entryY=0.036;entryDx=0;entryDy=0;entryPerimeter=0;fontSize=18;fontColor=#FF3333;" parent="7naOQtGflKw4HdsskOwx-1" source="ONOx8rUnY-V4LjiNuUv7-10" edge="1">
          <mxGeometry relative="1" as="geometry">
            <mxPoint x="1209.44" y="1052.52" as="targetPoint" />
          </mxGeometry>
        </mxCell>
        <mxCell id="ONOx8rUnY-V4LjiNuUv7-10" value="&lt;font style=&quot;font-size: 18px;&quot;&gt;线程2&lt;/font&gt;" style="ellipse;whiteSpace=wrap;html=1;fontSize=24;fontColor=#ffffff;fillColor=#a20025;strokeColor=#6F0000;" parent="7naOQtGflKw4HdsskOwx-1" vertex="1">
          <mxGeometry x="1160" y="860" width="90" height="70" as="geometry" />
        </mxCell>
        <mxCell id="ONOx8rUnY-V4LjiNuUv7-17" style="edgeStyle=none;rounded=0;orthogonalLoop=1;jettySize=auto;html=1;entryX=0.501;entryY=0.021;entryDx=0;entryDy=0;entryPerimeter=0;fontSize=18;fontColor=#FF3333;" parent="7naOQtGflKw4HdsskOwx-1" source="ONOx8rUnY-V4LjiNuUv7-11" edge="1">
          <mxGeometry relative="1" as="geometry">
            <mxPoint x="1340.6399999999999" y="1051.47" as="targetPoint" />
          </mxGeometry>
        </mxCell>
        <mxCell id="ONOx8rUnY-V4LjiNuUv7-11" value="&lt;font style=&quot;font-size: 18px;&quot;&gt;线程3&lt;/font&gt;" style="ellipse;whiteSpace=wrap;html=1;fontSize=24;fontColor=#ffffff;fillColor=#a20025;strokeColor=#6F0000;" parent="7naOQtGflKw4HdsskOwx-1" vertex="1">
          <mxGeometry x="1275" y="860" width="90" height="70" as="geometry" />
        </mxCell>
        <mxCell id="ONOx8rUnY-V4LjiNuUv7-18" style="edgeStyle=none;rounded=0;orthogonalLoop=1;jettySize=auto;html=1;fontSize=18;fontColor=#FF3333;entryX=0.689;entryY=-0.018;entryDx=0;entryDy=0;entryPerimeter=0;" parent="7naOQtGflKw4HdsskOwx-1" source="ONOx8rUnY-V4LjiNuUv7-12" edge="1">
          <mxGeometry relative="1" as="geometry">
            <mxPoint x="1460.96" y="1048.74" as="targetPoint" />
          </mxGeometry>
        </mxCell>
        <mxCell id="ONOx8rUnY-V4LjiNuUv7-12" value="&lt;font style=&quot;font-size: 18px;&quot;&gt;线程4&lt;/font&gt;" style="ellipse;whiteSpace=wrap;html=1;fontSize=24;fontColor=#ffffff;fillColor=#a20025;strokeColor=#6F0000;" parent="7naOQtGflKw4HdsskOwx-1" vertex="1">
          <mxGeometry x="1380" y="860" width="90" height="70" as="geometry" />
        </mxCell>
        <mxCell id="ONOx8rUnY-V4LjiNuUv7-19" style="edgeStyle=none;rounded=0;orthogonalLoop=1;jettySize=auto;html=1;entryX=0.932;entryY=0.006;entryDx=0;entryDy=0;entryPerimeter=0;fontSize=18;fontColor=#FF3333;" parent="7naOQtGflKw4HdsskOwx-1" source="ONOx8rUnY-V4LjiNuUv7-13" edge="1">
          <mxGeometry relative="1" as="geometry">
            <mxPoint x="1616.48" y="1050.42" as="targetPoint" />
          </mxGeometry>
        </mxCell>
        <mxCell id="ONOx8rUnY-V4LjiNuUv7-13" value="&lt;font style=&quot;font-size: 18px;&quot;&gt;线程5&lt;/font&gt;" style="ellipse;whiteSpace=wrap;html=1;fontSize=24;fontColor=#ffffff;fillColor=#a20025;strokeColor=#6F0000;" parent="7naOQtGflKw4HdsskOwx-1" vertex="1">
          <mxGeometry x="1500" y="860" width="90" height="70" as="geometry" />
        </mxCell>
        <mxCell id="ONOx8rUnY-V4LjiNuUv7-21" value="&lt;b style=&quot;color: rgb(0, 51, 0);&quot;&gt;size=sum(CounterCell) + baseCount&lt;/b&gt;" style="text;html=1;strokeColor=#2D7600;fillColor=#60a917;align=center;verticalAlign=middle;whiteSpace=wrap;rounded=1;fontSize=18;sketch=1;fontColor=#ffffff;" parent="7naOQtGflKw4HdsskOwx-1" vertex="1">
          <mxGeometry x="-413" y="1344.5" width="422" height="51" as="geometry" />
        </mxCell>
        <mxCell id="f18ksdCFNc6F3bTeBK5j-9" style="edgeStyle=orthogonalEdgeStyle;rounded=0;orthogonalLoop=1;jettySize=auto;html=1;entryX=1.008;entryY=0.606;entryDx=0;entryDy=0;entryPerimeter=0;fontSize=24;fontColor=#4D4D4D;strokeWidth=3;" edge="1" parent="7naOQtGflKw4HdsskOwx-1" source="ZRcpVtV2t2ZSD3cLuIn8-0" target="f18ksdCFNc6F3bTeBK5j-8">
          <mxGeometry relative="1" as="geometry">
            <Array as="points">
              <mxPoint x="1360" y="1379" />
            </Array>
          </mxGeometry>
        </mxCell>
        <mxCell id="ZRcpVtV2t2ZSD3cLuIn8-0" value="" style="shape=table;startSize=0;container=1;collapsible=0;childLayout=tableLayout;fontSize=18;fontColor=#ffffff;strokeColor=#2D7600;strokeWidth=1;fillColor=#60a917;rounded=1;shadow=0;sketch=1;" parent="7naOQtGflKw4HdsskOwx-1" vertex="1">
          <mxGeometry x="1060" y="1060" width="600" height="110" as="geometry" />
        </mxCell>
        <mxCell id="ZRcpVtV2t2ZSD3cLuIn8-1" value="" style="shape=tableRow;horizontal=0;startSize=0;swimlaneHead=0;swimlaneBody=0;top=0;left=0;bottom=0;right=0;collapsible=0;dropTarget=0;fillColor=none;points=[[0,0.5],[1,0.5]];portConstraint=eastwest;fontSize=18;fontColor=#FF3333;strokeColor=#000000;strokeWidth=7;" parent="ZRcpVtV2t2ZSD3cLuIn8-0" vertex="1">
          <mxGeometry width="600" height="110" as="geometry" />
        </mxCell>
        <mxCell id="ZRcpVtV2t2ZSD3cLuIn8-2" value="&lt;font color=&quot;#4c0099&quot;&gt;CounterCell&lt;br&gt;value+=1&lt;br&gt;&lt;/font&gt;" style="shape=partialRectangle;html=1;whiteSpace=wrap;connectable=0;overflow=hidden;fillColor=none;top=0;left=0;bottom=0;right=0;pointerEvents=1;fontSize=18;fontColor=#FF3333;strokeColor=#000000;strokeWidth=7;" parent="ZRcpVtV2t2ZSD3cLuIn8-1" vertex="1">
          <mxGeometry width="120" height="110" as="geometry">
            <mxRectangle width="120" height="110" as="alternateBounds" />
          </mxGeometry>
        </mxCell>
        <mxCell id="ZRcpVtV2t2ZSD3cLuIn8-3" value="&lt;span style=&quot;color: rgb(76, 0, 153);&quot;&gt;CounterCell&lt;/span&gt;&lt;br style=&quot;color: rgb(76, 0, 153);&quot;&gt;&lt;span style=&quot;color: rgb(76, 0, 153);&quot;&gt;value+=1&lt;/span&gt;" style="shape=partialRectangle;html=1;whiteSpace=wrap;connectable=0;overflow=hidden;fillColor=none;top=0;left=0;bottom=0;right=0;pointerEvents=1;fontSize=18;fontColor=#FF3333;strokeColor=#000000;strokeWidth=7;" parent="ZRcpVtV2t2ZSD3cLuIn8-1" vertex="1">
          <mxGeometry x="120" width="120" height="110" as="geometry">
            <mxRectangle width="120" height="110" as="alternateBounds" />
          </mxGeometry>
        </mxCell>
        <mxCell id="ZRcpVtV2t2ZSD3cLuIn8-4" value="&lt;span style=&quot;color: rgb(76, 0, 153);&quot;&gt;CounterCell&lt;/span&gt;&lt;br style=&quot;color: rgb(76, 0, 153);&quot;&gt;&lt;span style=&quot;color: rgb(76, 0, 153);&quot;&gt;value+=1&lt;/span&gt;" style="shape=partialRectangle;html=1;whiteSpace=wrap;connectable=0;overflow=hidden;fillColor=none;top=0;left=0;bottom=0;right=0;pointerEvents=1;fontSize=18;fontColor=#FF3333;strokeColor=#000000;strokeWidth=7;" parent="ZRcpVtV2t2ZSD3cLuIn8-1" vertex="1">
          <mxGeometry x="240" width="120" height="110" as="geometry">
            <mxRectangle width="120" height="110" as="alternateBounds" />
          </mxGeometry>
        </mxCell>
        <mxCell id="ZRcpVtV2t2ZSD3cLuIn8-5" value="&lt;span style=&quot;color: rgb(76, 0, 153);&quot;&gt;CounterCell&lt;/span&gt;&lt;br style=&quot;color: rgb(76, 0, 153);&quot;&gt;&lt;span style=&quot;color: rgb(76, 0, 153);&quot;&gt;value+=1&lt;/span&gt;" style="shape=partialRectangle;html=1;whiteSpace=wrap;connectable=0;overflow=hidden;fillColor=none;top=0;left=0;bottom=0;right=0;pointerEvents=1;fontSize=18;fontColor=#FF3333;strokeColor=#000000;strokeWidth=7;shadow=1;sketch=0;" parent="ZRcpVtV2t2ZSD3cLuIn8-1" vertex="1">
          <mxGeometry x="360" width="120" height="110" as="geometry">
            <mxRectangle width="120" height="110" as="alternateBounds" />
          </mxGeometry>
        </mxCell>
        <mxCell id="ZRcpVtV2t2ZSD3cLuIn8-6" value="&lt;span style=&quot;color: rgb(76, 0, 153);&quot;&gt;CounterCell&lt;/span&gt;&lt;br style=&quot;color: rgb(76, 0, 153);&quot;&gt;&lt;span style=&quot;color: rgb(76, 0, 153);&quot;&gt;value+=1&lt;/span&gt;" style="shape=partialRectangle;html=1;whiteSpace=wrap;connectable=0;overflow=hidden;fillColor=none;top=0;left=0;bottom=0;right=0;pointerEvents=1;fontSize=18;fontColor=#FF3333;strokeColor=#000000;strokeWidth=7;" parent="ZRcpVtV2t2ZSD3cLuIn8-1" vertex="1">
          <mxGeometry x="480" width="120" height="110" as="geometry">
            <mxRectangle width="120" height="110" as="alternateBounds" />
          </mxGeometry>
        </mxCell>
        <mxCell id="f18ksdCFNc6F3bTeBK5j-5" style="edgeStyle=orthogonalEdgeStyle;rounded=0;orthogonalLoop=1;jettySize=auto;html=1;fontSize=24;fontColor=#4D4D4D;strokeWidth=3;" edge="1" parent="7naOQtGflKw4HdsskOwx-1" source="ZRcpVtV2t2ZSD3cLuIn8-7">
          <mxGeometry relative="1" as="geometry">
            <mxPoint x="210" y="905" as="targetPoint" />
          </mxGeometry>
        </mxCell>
        <mxCell id="ZRcpVtV2t2ZSD3cLuIn8-7" value="&lt;font style=&quot;font-size: 18px;&quot;&gt;线程6&lt;/font&gt;" style="ellipse;whiteSpace=wrap;html=1;fontSize=24;fontColor=#ffffff;fillColor=#a20025;strokeColor=#6F0000;" parent="7naOQtGflKw4HdsskOwx-1" vertex="1">
          <mxGeometry x="10" y="870" width="90" height="70" as="geometry" />
        </mxCell>
        <mxCell id="f18ksdCFNc6F3bTeBK5j-2" style="edgeStyle=orthogonalEdgeStyle;rounded=0;orthogonalLoop=1;jettySize=auto;html=1;fontSize=24;fontColor=#4D4D4D;strokeWidth=3;" edge="1" parent="7naOQtGflKw4HdsskOwx-1" source="ZRcpVtV2t2ZSD3cLuIn8-9">
          <mxGeometry relative="1" as="geometry">
            <mxPoint x="1400" y="830" as="targetPoint" />
            <Array as="points">
              <mxPoint x="1400" y="713" />
            </Array>
          </mxGeometry>
        </mxCell>
        <mxCell id="f18ksdCFNc6F3bTeBK5j-6" style="edgeStyle=orthogonalEdgeStyle;rounded=0;orthogonalLoop=1;jettySize=auto;html=1;fontSize=24;fontColor=#4D4D4D;strokeWidth=3;entryX=0.5;entryY=0;entryDx=0;entryDy=0;" edge="1" parent="7naOQtGflKw4HdsskOwx-1" source="ZRcpVtV2t2ZSD3cLuIn8-9" target="f18ksdCFNc6F3bTeBK5j-8">
          <mxGeometry relative="1" as="geometry">
            <mxPoint x="329" y="1230" as="targetPoint" />
          </mxGeometry>
        </mxCell>
        <mxCell id="ZRcpVtV2t2ZSD3cLuIn8-9" value="&lt;font color=&quot;#4c0099&quot;&gt;&lt;b&gt;baseCount+=1&lt;/b&gt;&lt;/font&gt;" style="rounded=1;whiteSpace=wrap;html=1;shadow=0;sketch=1;fontSize=18;fontColor=#ffffff;strokeColor=#2D7600;strokeWidth=1;fillColor=#60a917;" parent="7naOQtGflKw4HdsskOwx-1" vertex="1">
          <mxGeometry x="244" y="680" width="170" height="55" as="geometry" />
        </mxCell>
        <mxCell id="ZRcpVtV2t2ZSD3cLuIn8-10" value="&lt;font color=&quot;#4d4d4d&quot;&gt;CAS成功&lt;/font&gt;" style="text;html=1;align=center;verticalAlign=middle;resizable=0;points=[];autosize=1;strokeColor=#3A5431;fillColor=#6d8764;fontSize=18;fontColor=#ffffff;sketch=1;rounded=1;" parent="7naOQtGflKw4HdsskOwx-1" vertex="1">
          <mxGeometry x="220" y="890" width="90" height="30" as="geometry" />
        </mxCell>
        <mxCell id="ZRcpVtV2t2ZSD3cLuIn8-11" value="&lt;font color=&quot;#4d4d4d&quot;&gt;只有一个线程CAS竞争成功修改baseCount，其余线程只能通过各自线程产生的随机数定位到数组CounterCells中的一个CounterCell，在CounterCell中累加值&lt;/font&gt;" style="text;html=1;strokeColor=#C73500;fillColor=#fa6800;align=left;verticalAlign=middle;whiteSpace=wrap;rounded=1;shadow=0;sketch=1;fontSize=18;fontColor=#000000;glass=0;" parent="7naOQtGflKw4HdsskOwx-1" vertex="1">
          <mxGeometry x="-510" y="690" width="637" height="70" as="geometry" />
        </mxCell>
        <mxCell id="8MqLC_mFyrlaWAz_MIFn-0" value="&lt;font style=&quot;font-size: 18px;&quot;&gt;&lt;b style=&quot;&quot;&gt;&lt;font color=&quot;#000066&quot;&gt;所有线程累计计数时，&lt;/font&gt;&lt;font color=&quot;#990000&quot;&gt;在counterCells数组为null时&lt;/font&gt;&lt;font color=&quot;#000066&quot;&gt;，首先会尝试通过CAS修改baseCount&lt;/font&gt;&lt;/b&gt;&lt;/font&gt;" style="text;html=1;strokeColor=#2D7600;fillColor=#60a917;align=center;verticalAlign=middle;whiteSpace=wrap;rounded=1;sketch=1;fontColor=#ffffff;shadow=0;" parent="7naOQtGflKw4HdsskOwx-1" vertex="1">
          <mxGeometry x="370" y="540" width="410" height="60" as="geometry" />
        </mxCell>
        <mxCell id="f18ksdCFNc6F3bTeBK5j-1" value="&lt;font color=&quot;#4c0099&quot;&gt;&lt;b&gt;counterCells&lt;/b&gt;&lt;/font&gt;" style="rounded=1;whiteSpace=wrap;html=1;shadow=0;sketch=1;fontSize=18;fontColor=#ffffff;strokeColor=#2D7600;strokeWidth=1;fillColor=#60a917;" vertex="1" parent="7naOQtGflKw4HdsskOwx-1">
          <mxGeometry x="1690" y="1080" width="170" height="55" as="geometry" />
        </mxCell>
        <mxCell id="f18ksdCFNc6F3bTeBK5j-3" value="&lt;font color=&quot;#4d4d4d&quot;&gt;CAS失败线程&lt;/font&gt;" style="text;html=1;align=center;verticalAlign=middle;resizable=0;points=[];autosize=1;strokeColor=#3A5431;fillColor=#6d8764;fontSize=18;fontColor=#ffffff;sketch=1;rounded=1;" vertex="1" parent="7naOQtGflKw4HdsskOwx-1">
          <mxGeometry x="645" y="670" width="120" height="30" as="geometry" />
        </mxCell>
        <mxCell id="f18ksdCFNc6F3bTeBK5j-8" value="&lt;font color=&quot;#003300&quot;&gt;&lt;b&gt;计数结束&lt;br&gt;&lt;br&gt;&lt;/b&gt;&lt;/font&gt;" style="text;html=1;strokeColor=#2D7600;fillColor=#60a917;align=center;verticalAlign=middle;whiteSpace=wrap;rounded=1;fontSize=18;sketch=1;fontColor=#ffffff;" vertex="1" parent="7naOQtGflKw4HdsskOwx-1">
          <mxGeometry x="160" y="1330" width="340" height="80" as="geometry" />
        </mxCell>
      </root>
    </mxGraphModel>
  </diagram>
  <diagram id="ew7f8KFQaSG20euBCDn4" name="addCount部分计数流程">
    <mxGraphModel dx="979" dy="550" grid="1" gridSize="10" guides="1" tooltips="1" connect="1" arrows="1" fold="1" page="1" pageScale="1" pageWidth="827" pageHeight="1169" math="0" shadow="0">
      <root>
        <mxCell id="0" />
        <mxCell id="1" parent="0" />
        <mxCell id="XRU8hjVqcVGfKxrtkuwI-2" style="edgeStyle=orthogonalEdgeStyle;rounded=0;orthogonalLoop=1;jettySize=auto;html=1;fontSize=24;fontColor=#000000;entryX=0.5;entryY=0;entryDx=0;entryDy=0;" edge="1" parent="1" source="XRU8hjVqcVGfKxrtkuwI-1" target="XRU8hjVqcVGfKxrtkuwI-9">
          <mxGeometry relative="1" as="geometry">
            <mxPoint x="335" y="330" as="targetPoint" />
          </mxGeometry>
        </mxCell>
        <mxCell id="XRU8hjVqcVGfKxrtkuwI-26" style="edgeStyle=orthogonalEdgeStyle;rounded=0;orthogonalLoop=1;jettySize=auto;html=1;fontSize=24;fontColor=#000000;entryX=0;entryY=0.5;entryDx=0;entryDy=0;" edge="1" parent="1" source="XRU8hjVqcVGfKxrtkuwI-1" target="XRU8hjVqcVGfKxrtkuwI-28">
          <mxGeometry relative="1" as="geometry">
            <mxPoint x="740" y="210" as="targetPoint" />
          </mxGeometry>
        </mxCell>
        <mxCell id="XRU8hjVqcVGfKxrtkuwI-1" value="&lt;font color=&quot;#000000&quot;&gt;&amp;nbsp;counterCells==null&lt;/font&gt;" style="rhombus;whiteSpace=wrap;html=1;rounded=1;shadow=0;sketch=1;fontSize=24;fontColor=#ffffff;fillColor=#008a00;strokeColor=#005700;" vertex="1" parent="1">
          <mxGeometry x="200" y="170" width="270" height="80" as="geometry" />
        </mxCell>
        <mxCell id="XRU8hjVqcVGfKxrtkuwI-4" value="&lt;font color=&quot;#990000&quot;&gt;true&lt;/font&gt;" style="text;html=1;strokeColor=#3700CC;fillColor=#6a00ff;align=center;verticalAlign=middle;whiteSpace=wrap;rounded=1;shadow=0;sketch=1;fontSize=24;fontColor=#ffffff;" vertex="1" parent="1">
          <mxGeometry x="260" y="410" width="60" height="30" as="geometry" />
        </mxCell>
        <mxCell id="XRU8hjVqcVGfKxrtkuwI-23" style="edgeStyle=orthogonalEdgeStyle;rounded=0;orthogonalLoop=1;jettySize=auto;html=1;entryX=0;entryY=0.5;entryDx=0;entryDy=0;fontSize=24;fontColor=#000000;" edge="1" parent="1" source="XRU8hjVqcVGfKxrtkuwI-9" target="XRU8hjVqcVGfKxrtkuwI-16">
          <mxGeometry relative="1" as="geometry" />
        </mxCell>
        <mxCell id="XRU8hjVqcVGfKxrtkuwI-36" style="edgeStyle=orthogonalEdgeStyle;rounded=0;orthogonalLoop=1;jettySize=auto;html=1;entryX=0.006;entryY=0.686;entryDx=0;entryDy=0;entryPerimeter=0;fontSize=24;fontColor=#006600;fillColor=#008a00;strokeColor=#005700;strokeWidth=3;" edge="1" parent="1" source="XRU8hjVqcVGfKxrtkuwI-9" target="XRU8hjVqcVGfKxrtkuwI-13">
          <mxGeometry relative="1" as="geometry">
            <Array as="points">
              <mxPoint x="335" y="1125" />
            </Array>
          </mxGeometry>
        </mxCell>
        <mxCell id="XRU8hjVqcVGfKxrtkuwI-9" value="&lt;font color=&quot;#000000&quot;&gt;CAS:baseCount&lt;/font&gt;" style="rhombus;whiteSpace=wrap;html=1;rounded=1;shadow=1;sketch=1;fontSize=24;fontColor=#ffffff;fillColor=#008a00;strokeColor=#005700;" vertex="1" parent="1">
          <mxGeometry x="200" y="645" width="270" height="110" as="geometry" />
        </mxCell>
        <mxCell id="XRU8hjVqcVGfKxrtkuwI-12" value="&lt;font color=&quot;#990000&quot;&gt;true&lt;/font&gt;" style="text;html=1;strokeColor=#3700CC;fillColor=#6a00ff;align=center;verticalAlign=middle;whiteSpace=wrap;rounded=1;shadow=0;sketch=1;fontSize=24;fontColor=#ffffff;" vertex="1" parent="1">
          <mxGeometry x="370" y="860" width="60" height="30" as="geometry" />
        </mxCell>
        <mxCell id="XRU8hjVqcVGfKxrtkuwI-13" value="&lt;font color=&quot;#4d4d4d&quot;&gt;end&lt;/font&gt;" style="ellipse;whiteSpace=wrap;html=1;aspect=fixed;rounded=1;shadow=0;sketch=1;fontSize=24;fontColor=#ffffff;fillColor=#008a00;strokeColor=#005700;" vertex="1" parent="1">
          <mxGeometry x="775" y="1070" width="80" height="80" as="geometry" />
        </mxCell>
        <mxCell id="XRU8hjVqcVGfKxrtkuwI-25" style="edgeStyle=orthogonalEdgeStyle;rounded=0;orthogonalLoop=1;jettySize=auto;html=1;fontSize=24;fontColor=#000000;fillColor=#a0522d;strokeColor=#6D1F00;strokeWidth=3;" edge="1" parent="1" source="XRU8hjVqcVGfKxrtkuwI-16" target="XRU8hjVqcVGfKxrtkuwI-13">
          <mxGeometry relative="1" as="geometry">
            <mxPoint x="400" y="1090" as="targetPoint" />
            <Array as="points">
              <mxPoint x="825" y="1090" />
            </Array>
          </mxGeometry>
        </mxCell>
        <mxCell id="XRU8hjVqcVGfKxrtkuwI-16" value="&lt;font color=&quot;#660066&quot;&gt;进入：fullAddCount&lt;/font&gt;" style="rounded=1;whiteSpace=wrap;html=1;shadow=0;sketch=1;fontSize=24;fontColor=#000000;fillColor=#fa6800;strokeColor=#C73500;" vertex="1" parent="1">
          <mxGeometry x="690" y="660" width="250" height="80" as="geometry" />
        </mxCell>
        <mxCell id="XRU8hjVqcVGfKxrtkuwI-22" value="&lt;font color=&quot;#990000&quot;&gt;false&lt;/font&gt;" style="text;html=1;strokeColor=#3700CC;fillColor=#6a00ff;align=center;verticalAlign=middle;whiteSpace=wrap;rounded=1;shadow=0;sketch=1;fontSize=24;fontColor=#ffffff;" vertex="1" parent="1">
          <mxGeometry x="510" y="170" width="110" height="30" as="geometry" />
        </mxCell>
        <mxCell id="XRU8hjVqcVGfKxrtkuwI-24" value="&lt;font color=&quot;#990000&quot;&gt;false&lt;/font&gt;" style="text;html=1;strokeColor=#C73500;fillColor=#fa6800;align=center;verticalAlign=middle;whiteSpace=wrap;rounded=1;shadow=0;sketch=1;fontSize=24;fontColor=#000000;" vertex="1" parent="1">
          <mxGeometry x="500" y="660" width="110" height="30" as="geometry" />
        </mxCell>
        <mxCell id="XRU8hjVqcVGfKxrtkuwI-29" style="edgeStyle=orthogonalEdgeStyle;rounded=0;orthogonalLoop=1;jettySize=auto;html=1;fontSize=18;fontColor=#006600;entryX=0.597;entryY=0.023;entryDx=0;entryDy=0;entryPerimeter=0;" edge="1" parent="1" source="XRU8hjVqcVGfKxrtkuwI-28" target="XRU8hjVqcVGfKxrtkuwI-16">
          <mxGeometry relative="1" as="geometry">
            <mxPoint x="840" y="650" as="targetPoint" />
          </mxGeometry>
        </mxCell>
        <mxCell id="XRU8hjVqcVGfKxrtkuwI-34" style="edgeStyle=orthogonalEdgeStyle;rounded=0;orthogonalLoop=1;jettySize=auto;html=1;entryX=0;entryY=0.5;entryDx=0;entryDy=0;fontSize=24;fontColor=#006600;" edge="1" parent="1" source="XRU8hjVqcVGfKxrtkuwI-28" target="XRU8hjVqcVGfKxrtkuwI-33">
          <mxGeometry relative="1" as="geometry" />
        </mxCell>
        <mxCell id="XRU8hjVqcVGfKxrtkuwI-28" value="&lt;font color=&quot;#006600&quot; style=&quot;font-size: 18px;&quot;&gt;获取CounterCell对象&lt;br&gt;counterCell&lt;br&gt;&lt;/font&gt;" style="rounded=1;whiteSpace=wrap;html=1;shadow=0;sketch=1;fontSize=24;fontColor=#ffffff;fillColor=#1ba1e2;strokeColor=#006EAF;" vertex="1" parent="1">
          <mxGeometry x="750" y="175" width="180" height="70" as="geometry" />
        </mxCell>
        <mxCell id="XRU8hjVqcVGfKxrtkuwI-30" value="&lt;font style=&quot;font-size: 24px;&quot; color=&quot;#990000&quot;&gt;null&lt;/font&gt;" style="text;html=1;strokeColor=#3700CC;fillColor=#6a00ff;align=center;verticalAlign=middle;whiteSpace=wrap;rounded=1;shadow=0;sketch=1;fontSize=24;fontColor=#ffffff;" vertex="1" parent="1">
          <mxGeometry x="760" y="360" width="67" height="40" as="geometry" />
        </mxCell>
        <mxCell id="XRU8hjVqcVGfKxrtkuwI-32" value="&lt;font style=&quot;font-size: 24px;&quot; color=&quot;#990000&quot;&gt;not null&lt;/font&gt;" style="text;html=1;strokeColor=#3700CC;fillColor=#6a00ff;align=center;verticalAlign=middle;whiteSpace=wrap;rounded=1;shadow=0;sketch=1;fontSize=24;fontColor=#ffffff;" vertex="1" parent="1">
          <mxGeometry x="970" y="170" width="110" height="35" as="geometry" />
        </mxCell>
        <mxCell id="XRU8hjVqcVGfKxrtkuwI-38" style="edgeStyle=orthogonalEdgeStyle;rounded=0;orthogonalLoop=1;jettySize=auto;html=1;entryX=1;entryY=0.5;entryDx=0;entryDy=0;fontSize=24;fontColor=#006600;strokeWidth=3;fillColor=#e51400;strokeColor=#B20000;" edge="1" parent="1" source="XRU8hjVqcVGfKxrtkuwI-33" target="XRU8hjVqcVGfKxrtkuwI-16">
          <mxGeometry relative="1" as="geometry">
            <Array as="points">
              <mxPoint x="1295" y="700" />
            </Array>
          </mxGeometry>
        </mxCell>
        <mxCell id="XRU8hjVqcVGfKxrtkuwI-39" style="edgeStyle=orthogonalEdgeStyle;rounded=0;orthogonalLoop=1;jettySize=auto;html=1;entryX=1;entryY=0.5;entryDx=0;entryDy=0;fontSize=24;fontColor=#006600;strokeWidth=3;fillColor=#008a00;strokeColor=#005700;" edge="1" parent="1" source="XRU8hjVqcVGfKxrtkuwI-33" target="XRU8hjVqcVGfKxrtkuwI-13">
          <mxGeometry relative="1" as="geometry">
            <Array as="points">
              <mxPoint x="1570" y="210" />
              <mxPoint x="1570" y="1110" />
            </Array>
          </mxGeometry>
        </mxCell>
        <mxCell id="XRU8hjVqcVGfKxrtkuwI-33" value="&lt;font color=&quot;#000000&quot;&gt;CAS:counterCell&lt;/font&gt;" style="rhombus;whiteSpace=wrap;html=1;rounded=1;shadow=1;sketch=1;fontSize=24;fontColor=#ffffff;fillColor=#008a00;strokeColor=#005700;" vertex="1" parent="1">
          <mxGeometry x="1160" y="155" width="270" height="110" as="geometry" />
        </mxCell>
        <mxCell id="XRU8hjVqcVGfKxrtkuwI-37" value="&lt;font color=&quot;#990000&quot;&gt;false&lt;/font&gt;" style="text;html=1;strokeColor=#3A5431;fillColor=#6d8764;align=center;verticalAlign=middle;whiteSpace=wrap;rounded=1;shadow=0;sketch=1;fontSize=24;fontColor=#ffffff;" vertex="1" parent="1">
          <mxGeometry x="1180" y="410" width="110" height="30" as="geometry" />
        </mxCell>
        <mxCell id="XRU8hjVqcVGfKxrtkuwI-40" value="&lt;font color=&quot;#00331a&quot;&gt;true&lt;/font&gt;" style="text;html=1;strokeColor=#3A5431;fillColor=#6d8764;align=center;verticalAlign=middle;whiteSpace=wrap;rounded=1;shadow=0;sketch=1;fontSize=24;fontColor=#ffffff;" vertex="1" parent="1">
          <mxGeometry x="1440" y="170" width="110" height="30" as="geometry" />
        </mxCell>
      </root>
    </mxGraphModel>
  </diagram>
  <diagram id="gHyK9EmZud3mbmgWaBZr" name="fullAddCount">
    <mxGraphModel dx="979" dy="550" grid="1" gridSize="10" guides="1" tooltips="1" connect="1" arrows="1" fold="1" page="1" pageScale="1" pageWidth="827" pageHeight="1169" math="0" shadow="0">
      <root>
        <mxCell id="0" />
        <mxCell id="1" parent="0" />
        <mxCell id="nF-T1pNGSHgjtDEy842T-3" style="edgeStyle=orthogonalEdgeStyle;rounded=0;orthogonalLoop=1;jettySize=auto;html=1;fontSize=24;fontColor=#4D4D4D;strokeWidth=3;entryX=0.5;entryY=0;entryDx=0;entryDy=0;" edge="1" parent="1" source="nF-T1pNGSHgjtDEy842T-2" target="9n1TkgNZG8FzC_L3bgd0-3">
          <mxGeometry relative="1" as="geometry">
            <mxPoint x="340" y="310" as="targetPoint" />
          </mxGeometry>
        </mxCell>
        <mxCell id="nF-T1pNGSHgjtDEy842T-2" value="&lt;font color=&quot;#4d4d4d&quot;&gt;&lt;b&gt;线程生成随机数h&lt;/b&gt;&lt;/font&gt;" style="rounded=1;whiteSpace=wrap;html=1;shadow=0;sketch=1;fontSize=24;fontColor=#ffffff;fillColor=#008a00;strokeColor=#005700;" vertex="1" parent="1">
          <mxGeometry x="240" y="100" width="200" height="60" as="geometry" />
        </mxCell>
        <mxCell id="RTyZr4ASNU2lOgtKBWlH-1" value="&lt;font color=&quot;#663300&quot;&gt;fullAddCount流程&lt;/font&gt;" style="text;html=1;strokeColor=#B09500;fillColor=#B09500;align=center;verticalAlign=middle;whiteSpace=wrap;rounded=0;shadow=1;glass=0;sketch=1;fontSize=24;fontColor=#000000;" vertex="1" parent="1">
          <mxGeometry x="20" y="20" width="230" height="40" as="geometry" />
        </mxCell>
        <mxCell id="9n1TkgNZG8FzC_L3bgd0-4" style="edgeStyle=orthogonalEdgeStyle;rounded=0;orthogonalLoop=1;jettySize=auto;html=1;fontSize=24;fontColor=#663300;strokeWidth=3;entryX=0.5;entryY=0;entryDx=0;entryDy=0;" edge="1" parent="1" source="9n1TkgNZG8FzC_L3bgd0-3" target="9n1TkgNZG8FzC_L3bgd0-10">
          <mxGeometry relative="1" as="geometry">
            <mxPoint x="340" y="520" as="targetPoint" />
          </mxGeometry>
        </mxCell>
        <mxCell id="9n1TkgNZG8FzC_L3bgd0-17" style="edgeStyle=orthogonalEdgeStyle;rounded=0;orthogonalLoop=1;jettySize=auto;html=1;fontSize=18;fontColor=#DB0000;strokeWidth=3;entryX=0;entryY=0.5;entryDx=0;entryDy=0;" edge="1" parent="1" source="9n1TkgNZG8FzC_L3bgd0-3" target="9n1TkgNZG8FzC_L3bgd0-19">
          <mxGeometry relative="1" as="geometry">
            <mxPoint x="660" y="360" as="targetPoint" />
          </mxGeometry>
        </mxCell>
        <mxCell id="9n1TkgNZG8FzC_L3bgd0-3" value="counterCells数组" style="rhombus;whiteSpace=wrap;html=1;rounded=1;shadow=1;glass=0;sketch=1;fontSize=24;fontColor=#663300;strokeColor=#B09500;fillColor=#B09500;" vertex="1" parent="1">
          <mxGeometry x="190" y="320" width="300" height="80" as="geometry" />
        </mxCell>
        <mxCell id="9n1TkgNZG8FzC_L3bgd0-8" value="&lt;b style=&quot;&quot;&gt;&lt;font color=&quot;#cc6600&quot;&gt;null&lt;/font&gt;&lt;/b&gt;" style="rounded=1;whiteSpace=wrap;html=1;shadow=0;sketch=1;fontSize=24;fontColor=#000000;fillColor=#fa6800;strokeColor=#C73500;" vertex="1" parent="1">
          <mxGeometry x="265" y="500" width="60" height="40" as="geometry" />
        </mxCell>
        <mxCell id="9n1TkgNZG8FzC_L3bgd0-11" style="edgeStyle=orthogonalEdgeStyle;rounded=0;orthogonalLoop=1;jettySize=auto;html=1;fontSize=18;fontColor=#CC6600;strokeWidth=3;entryX=0.5;entryY=0;entryDx=0;entryDy=0;" edge="1" parent="1" source="9n1TkgNZG8FzC_L3bgd0-10" target="a6P5rGD-qJhZi634MaSs-14">
          <mxGeometry relative="1" as="geometry">
            <mxPoint x="340" y="1000" as="targetPoint" />
          </mxGeometry>
        </mxCell>
        <mxCell id="a6P5rGD-qJhZi634MaSs-7" style="edgeStyle=orthogonalEdgeStyle;rounded=0;orthogonalLoop=1;jettySize=auto;html=1;fontSize=18;fontColor=#00331A;strokeWidth=3;entryX=0.5;entryY=0;entryDx=0;entryDy=0;" edge="1" parent="1" source="9n1TkgNZG8FzC_L3bgd0-10" target="a6P5rGD-qJhZi634MaSs-13">
          <mxGeometry relative="1" as="geometry">
            <mxPoint x="690" y="830" as="targetPoint" />
          </mxGeometry>
        </mxCell>
        <mxCell id="9n1TkgNZG8FzC_L3bgd0-10" value="&lt;font color=&quot;#000000&quot;&gt;CAS:初始化数组&lt;/font&gt;" style="rhombus;whiteSpace=wrap;html=1;rounded=1;shadow=1;sketch=1;fontSize=24;fontColor=#ffffff;fillColor=#008a00;strokeColor=#005700;" vertex="1" parent="1">
          <mxGeometry x="205" y="660" width="270" height="110" as="geometry" />
        </mxCell>
        <mxCell id="9n1TkgNZG8FzC_L3bgd0-12" value="&lt;b style=&quot;&quot;&gt;&lt;font color=&quot;#cc6600&quot;&gt;成功&lt;/font&gt;&lt;/b&gt;" style="rounded=1;whiteSpace=wrap;html=1;shadow=0;sketch=1;fontSize=24;fontColor=#000000;fillColor=#fa6800;strokeColor=#C73500;" vertex="1" parent="1">
          <mxGeometry x="530" y="660" width="75" height="50" as="geometry" />
        </mxCell>
        <mxCell id="9n1TkgNZG8FzC_L3bgd0-13" value="&lt;font color=&quot;#330066&quot;&gt;结束&lt;/font&gt;" style="ellipse;whiteSpace=wrap;html=1;aspect=fixed;rounded=1;shadow=1;glass=0;sketch=1;fontSize=18;fontColor=#ffffff;strokeColor=#B20000;fillColor=#e51400;" vertex="1" parent="1">
          <mxGeometry x="630" y="1370" width="90" height="90" as="geometry" />
        </mxCell>
        <mxCell id="9n1TkgNZG8FzC_L3bgd0-15" style="edgeStyle=orthogonalEdgeStyle;rounded=0;orthogonalLoop=1;jettySize=auto;html=1;fontSize=18;fontColor=#CC6600;strokeWidth=3;exitX=0.5;exitY=1;exitDx=0;exitDy=0;" edge="1" parent="1" source="a6P5rGD-qJhZi634MaSs-14" target="9n1TkgNZG8FzC_L3bgd0-13">
          <mxGeometry relative="1" as="geometry">
            <mxPoint x="340" y="1180" as="sourcePoint" />
            <Array as="points">
              <mxPoint x="340" y="1400" />
            </Array>
          </mxGeometry>
        </mxCell>
        <mxCell id="9n1TkgNZG8FzC_L3bgd0-16" value="通过&lt;b style=&quot;&quot;&gt;&lt;font color=&quot;#db0000&quot;&gt;h&amp;amp;(n-1)&lt;/font&gt;&lt;/b&gt;定位到数组下标" style="rounded=1;whiteSpace=wrap;html=1;shadow=1;glass=0;sketch=1;fontSize=18;fontColor=#330066;strokeColor=#B09500;fillColor=#B09500;" vertex="1" parent="1">
          <mxGeometry x="520" y="890" width="146" height="60" as="geometry" />
        </mxCell>
        <mxCell id="9n1TkgNZG8FzC_L3bgd0-18" value="&lt;b style=&quot;&quot;&gt;&lt;font color=&quot;#cc6600&quot;&gt;not null&lt;/font&gt;&lt;/b&gt;" style="rounded=1;whiteSpace=wrap;html=1;shadow=0;sketch=1;fontSize=24;fontColor=#000000;fillColor=#fa6800;strokeColor=#C73500;" vertex="1" parent="1">
          <mxGeometry x="510" y="305" width="90" height="50" as="geometry" />
        </mxCell>
        <mxCell id="9n1TkgNZG8FzC_L3bgd0-21" style="edgeStyle=orthogonalEdgeStyle;rounded=0;orthogonalLoop=1;jettySize=auto;html=1;fontSize=18;fontColor=#DB0000;strokeWidth=3;entryX=0;entryY=0.5;entryDx=0;entryDy=0;" edge="1" parent="1" source="9n1TkgNZG8FzC_L3bgd0-19" target="9n1TkgNZG8FzC_L3bgd0-24">
          <mxGeometry relative="1" as="geometry">
            <mxPoint x="890" y="360" as="targetPoint" />
          </mxGeometry>
        </mxCell>
        <mxCell id="9n1TkgNZG8FzC_L3bgd0-19" value="&lt;b&gt;获取下标：h &amp;amp; (n-1)&lt;/b&gt;" style="rounded=1;whiteSpace=wrap;html=1;shadow=1;glass=0;sketch=1;fontSize=18;fontColor=#DB0000;strokeColor=#B09500;fillColor=#B09500;" vertex="1" parent="1">
          <mxGeometry x="660" y="330" width="100" height="60" as="geometry" />
        </mxCell>
        <mxCell id="a6P5rGD-qJhZi634MaSs-1" style="edgeStyle=orthogonalEdgeStyle;rounded=0;orthogonalLoop=1;jettySize=auto;html=1;fontSize=18;fontColor=#00331A;strokeWidth=3;entryX=0.5;entryY=0;entryDx=0;entryDy=0;" edge="1" parent="1" source="9n1TkgNZG8FzC_L3bgd0-24" target="a6P5rGD-qJhZi634MaSs-25">
          <mxGeometry relative="1" as="geometry">
            <mxPoint x="1065" y="550" as="targetPoint" />
          </mxGeometry>
        </mxCell>
        <mxCell id="a6P5rGD-qJhZi634MaSs-18" style="edgeStyle=orthogonalEdgeStyle;rounded=0;orthogonalLoop=1;jettySize=auto;html=1;fontSize=18;fontColor=#00331A;strokeColor=#000000;strokeWidth=3;entryX=0.5;entryY=0;entryDx=0;entryDy=0;" edge="1" parent="1" source="9n1TkgNZG8FzC_L3bgd0-24" target="a6P5rGD-qJhZi634MaSs-33">
          <mxGeometry relative="1" as="geometry">
            <mxPoint x="1600" y="360" as="targetPoint" />
          </mxGeometry>
        </mxCell>
        <mxCell id="9n1TkgNZG8FzC_L3bgd0-24" value="&lt;span style=&quot;font-size: 18px;&quot;&gt;&lt;font color=&quot;#00331a&quot;&gt;&lt;b&gt;获取对象:CounterCell&lt;/b&gt;&lt;/font&gt;&lt;/span&gt;" style="rhombus;whiteSpace=wrap;html=1;rounded=1;shadow=1;sketch=1;fontSize=24;fontColor=#ffffff;fillColor=#008a00;strokeColor=#005700;" vertex="1" parent="1">
          <mxGeometry x="930" y="305" width="270" height="110" as="geometry" />
        </mxCell>
        <mxCell id="a6P5rGD-qJhZi634MaSs-3" value="&lt;b style=&quot;&quot;&gt;&lt;font color=&quot;#cc6600&quot;&gt;not null&lt;/font&gt;&lt;/b&gt;" style="rounded=1;whiteSpace=wrap;html=1;shadow=0;sketch=1;fontSize=24;fontColor=#000000;fillColor=#fa6800;strokeColor=#C73500;" vertex="1" parent="1">
          <mxGeometry x="1190" y="300" width="120" height="50" as="geometry" />
        </mxCell>
        <mxCell id="a6P5rGD-qJhZi634MaSs-23" style="edgeStyle=orthogonalEdgeStyle;rounded=0;orthogonalLoop=1;jettySize=auto;html=1;fontSize=18;fontColor=#00331A;strokeColor=#000000;strokeWidth=3;exitX=0.5;exitY=1;exitDx=0;exitDy=0;fillColor=#f0a30a;" edge="1" parent="1" source="a6P5rGD-qJhZi634MaSs-30">
          <mxGeometry relative="1" as="geometry">
            <mxPoint x="1065" y="970" as="sourcePoint" />
            <mxPoint x="720" y="1415" as="targetPoint" />
            <Array as="points">
              <mxPoint x="1065" y="1410" />
              <mxPoint x="720" y="1410" />
            </Array>
          </mxGeometry>
        </mxCell>
        <mxCell id="a6P5rGD-qJhZi634MaSs-6" value="&lt;b style=&quot;&quot;&gt;&lt;font color=&quot;#cc6600&quot;&gt;成功&lt;/font&gt;&lt;/b&gt;" style="rounded=1;whiteSpace=wrap;html=1;shadow=0;sketch=1;fontSize=24;fontColor=#000000;fillColor=#fa6800;strokeColor=#C73500;" vertex="1" parent="1">
          <mxGeometry x="960" y="840" width="90" height="50" as="geometry" />
        </mxCell>
        <mxCell id="a6P5rGD-qJhZi634MaSs-9" value="&lt;b style=&quot;&quot;&gt;&lt;font color=&quot;#cc6600&quot;&gt;失败&lt;/font&gt;&lt;/b&gt;" style="rounded=1;whiteSpace=wrap;html=1;shadow=0;sketch=1;fontSize=24;fontColor=#000000;fillColor=#fa6800;strokeColor=#C73500;" vertex="1" parent="1">
          <mxGeometry x="260" y="850" width="70" height="40" as="geometry" />
        </mxCell>
        <mxCell id="a6P5rGD-qJhZi634MaSs-12" value="&lt;b style=&quot;&quot;&gt;&lt;font color=&quot;#cc6600&quot;&gt;成功&lt;/font&gt;&lt;/b&gt;" style="rounded=1;whiteSpace=wrap;html=1;shadow=0;sketch=1;fontSize=24;fontColor=#000000;fillColor=#fa6800;strokeColor=#C73500;" vertex="1" parent="1">
          <mxGeometry x="240" y="1220" width="75" height="50" as="geometry" />
        </mxCell>
        <mxCell id="a6P5rGD-qJhZi634MaSs-15" style="edgeStyle=orthogonalEdgeStyle;rounded=0;orthogonalLoop=1;jettySize=auto;html=1;fontSize=18;fontColor=#00331A;strokeWidth=3;" edge="1" parent="1" source="a6P5rGD-qJhZi634MaSs-13" target="9n1TkgNZG8FzC_L3bgd0-13">
          <mxGeometry relative="1" as="geometry" />
        </mxCell>
        <mxCell id="a6P5rGD-qJhZi634MaSs-13" value="&lt;b&gt;&lt;font color=&quot;#00331a&quot;&gt;生成CunterCell对象完成计数&lt;/font&gt;&lt;/b&gt;" style="rounded=1;whiteSpace=wrap;html=1;shadow=1;glass=0;sketch=1;fontSize=18;fontColor=#CC6600;strokeColor=#B09500;fillColor=#B09500;" vertex="1" parent="1">
          <mxGeometry x="540" y="980" width="270" height="80" as="geometry" />
        </mxCell>
        <mxCell id="a6P5rGD-qJhZi634MaSs-16" style="edgeStyle=orthogonalEdgeStyle;rounded=0;orthogonalLoop=1;jettySize=auto;html=1;fontSize=18;fontColor=#00331A;strokeWidth=8;strokeColor=#CC0000;" edge="1" parent="1" source="a6P5rGD-qJhZi634MaSs-14">
          <mxGeometry relative="1" as="geometry">
            <mxPoint x="330" y="260" as="targetPoint" />
            <Array as="points">
              <mxPoint x="70" y="1090" />
              <mxPoint x="70" y="260" />
            </Array>
          </mxGeometry>
        </mxCell>
        <mxCell id="a6P5rGD-qJhZi634MaSs-14" value="&lt;b&gt;CAS:baseCount&lt;/b&gt;" style="rhombus;whiteSpace=wrap;html=1;rounded=1;shadow=1;glass=0;sketch=1;fontSize=18;fontColor=#00331A;strokeColor=#B09500;fillColor=#B09500;" vertex="1" parent="1">
          <mxGeometry x="235" y="1020" width="210" height="140" as="geometry" />
        </mxCell>
        <mxCell id="a6P5rGD-qJhZi634MaSs-17" value="&lt;b style=&quot;&quot;&gt;&lt;font color=&quot;#ff0000&quot;&gt;失败&lt;/font&gt;&lt;/b&gt;" style="rounded=1;whiteSpace=wrap;html=1;shadow=0;sketch=1;fontSize=24;fontColor=#000000;fillColor=#999900;strokeColor=#C73500;" vertex="1" parent="1">
          <mxGeometry x="90" y="1030" width="70" height="40" as="geometry" />
        </mxCell>
        <mxCell id="a6P5rGD-qJhZi634MaSs-19" value="&lt;b style=&quot;&quot;&gt;&lt;font color=&quot;#cc6600&quot;&gt;null&lt;/font&gt;&lt;/b&gt;" style="rounded=1;whiteSpace=wrap;html=1;shadow=0;sketch=1;fontSize=24;fontColor=#000000;fillColor=#fa6800;strokeColor=#C73500;" vertex="1" parent="1">
          <mxGeometry x="970" y="460" width="80" height="40" as="geometry" />
        </mxCell>
        <mxCell id="a6P5rGD-qJhZi634MaSs-27" style="edgeStyle=orthogonalEdgeStyle;rounded=0;orthogonalLoop=1;jettySize=auto;html=1;entryX=0.5;entryY=0;entryDx=0;entryDy=0;fontSize=18;fontColor=#00331A;strokeColor=#000000;strokeWidth=3;" edge="1" parent="1" source="a6P5rGD-qJhZi634MaSs-25" target="a6P5rGD-qJhZi634MaSs-26">
          <mxGeometry relative="1" as="geometry" />
        </mxCell>
        <mxCell id="a6P5rGD-qJhZi634MaSs-25" value="&lt;b&gt;生成CounterCell&lt;/b&gt;" style="rounded=1;whiteSpace=wrap;html=1;shadow=1;glass=0;sketch=1;fontSize=18;fontColor=#00331A;strokeColor=#B09500;fillColor=#999900;" vertex="1" parent="1">
          <mxGeometry x="940" y="540" width="250" height="90" as="geometry" />
        </mxCell>
        <mxCell id="a6P5rGD-qJhZi634MaSs-29" style="edgeStyle=orthogonalEdgeStyle;rounded=0;orthogonalLoop=1;jettySize=auto;html=1;fontSize=18;fontColor=#00331A;strokeColor=#000000;strokeWidth=3;entryX=0.5;entryY=0;entryDx=0;entryDy=0;" edge="1" parent="1" source="a6P5rGD-qJhZi634MaSs-26" target="a6P5rGD-qJhZi634MaSs-30">
          <mxGeometry relative="1" as="geometry">
            <mxPoint x="1065" y="850" as="targetPoint" />
          </mxGeometry>
        </mxCell>
        <mxCell id="a6P5rGD-qJhZi634MaSs-32" style="edgeStyle=orthogonalEdgeStyle;rounded=0;orthogonalLoop=1;jettySize=auto;html=1;fontSize=18;fontColor=#00331A;strokeColor=#000000;strokeWidth=3;entryX=0.5;entryY=0;entryDx=0;entryDy=0;" edge="1" parent="1" source="a6P5rGD-qJhZi634MaSs-26" target="a6P5rGD-qJhZi634MaSs-33">
          <mxGeometry relative="1" as="geometry">
            <mxPoint x="1360" y="850" as="targetPoint" />
          </mxGeometry>
        </mxCell>
        <mxCell id="a6P5rGD-qJhZi634MaSs-26" value="&lt;span style=&quot;font-size: 18px;&quot;&gt;&lt;font color=&quot;#00331a&quot;&gt;&lt;b&gt;CAS:cellsBusy&lt;/b&gt;&lt;/font&gt;&lt;/span&gt;" style="rhombus;whiteSpace=wrap;html=1;rounded=1;shadow=1;sketch=1;fontSize=24;fontColor=#ffffff;fillColor=#008a00;strokeColor=#005700;" vertex="1" parent="1">
          <mxGeometry x="930" y="690" width="270" height="110" as="geometry" />
        </mxCell>
        <mxCell id="a6P5rGD-qJhZi634MaSs-30" value="&lt;b&gt;生成CounterCell对象，完成计数&lt;/b&gt;" style="rounded=1;whiteSpace=wrap;html=1;shadow=1;glass=0;sketch=1;fontSize=18;fontColor=#00331A;strokeColor=#B09500;fillColor=#999900;" vertex="1" parent="1">
          <mxGeometry x="910" y="960" width="310" height="90" as="geometry" />
        </mxCell>
        <mxCell id="a6P5rGD-qJhZi634MaSs-35" style="edgeStyle=orthogonalEdgeStyle;rounded=0;orthogonalLoop=1;jettySize=auto;html=1;fontSize=18;fontColor=#00331A;strokeColor=#000000;strokeWidth=3;fillColor=#a0522d;exitX=0.5;exitY=1;exitDx=0;exitDy=0;" edge="1" parent="1" source="a6P5rGD-qJhZi634MaSs-33">
          <mxGeometry relative="1" as="geometry">
            <mxPoint x="720" y="1410" as="targetPoint" />
            <mxPoint x="1415" y="1060" as="sourcePoint" />
            <Array as="points">
              <mxPoint x="1415" y="1410" />
            </Array>
          </mxGeometry>
        </mxCell>
        <mxCell id="LNJiqRa9cXeinh8oVEyr-2" style="edgeStyle=orthogonalEdgeStyle;rounded=0;orthogonalLoop=1;jettySize=auto;html=1;fontSize=18;fontColor=#FF0000;strokeColor=#000000;strokeWidth=3;" edge="1" parent="1" source="a6P5rGD-qJhZi634MaSs-33">
          <mxGeometry relative="1" as="geometry">
            <mxPoint x="1730" y="925" as="targetPoint" />
          </mxGeometry>
        </mxCell>
        <mxCell id="a6P5rGD-qJhZi634MaSs-33" value="&lt;span style=&quot;font-size: 18px;&quot;&gt;&lt;font color=&quot;#00331a&quot;&gt;&lt;b&gt;CAS:CounterCell计数&lt;/b&gt;&lt;/font&gt;&lt;/span&gt;" style="rhombus;whiteSpace=wrap;html=1;rounded=1;shadow=1;sketch=1;fontSize=24;fontColor=#ffffff;fillColor=#008a00;strokeColor=#005700;" vertex="1" parent="1">
          <mxGeometry x="1280" y="870" width="270" height="110" as="geometry" />
        </mxCell>
        <mxCell id="a6P5rGD-qJhZi634MaSs-34" value="&lt;b style=&quot;&quot;&gt;&lt;font color=&quot;#cc6600&quot;&gt;失败&lt;/font&gt;&lt;/b&gt;" style="rounded=1;whiteSpace=wrap;html=1;shadow=0;sketch=1;fontSize=24;fontColor=#000000;fillColor=#fa6800;strokeColor=#C73500;" vertex="1" parent="1">
          <mxGeometry x="1220" y="690" width="90" height="50" as="geometry" />
        </mxCell>
        <mxCell id="a6P5rGD-qJhZi634MaSs-36" value="&lt;b style=&quot;&quot;&gt;&lt;font color=&quot;#cc6600&quot;&gt;成功&lt;/font&gt;&lt;/b&gt;" style="rounded=1;whiteSpace=wrap;html=1;shadow=0;sketch=1;fontSize=24;fontColor=#000000;fillColor=#fa6800;strokeColor=#C73500;" vertex="1" parent="1">
          <mxGeometry x="1310" y="1160" width="90" height="50" as="geometry" />
        </mxCell>
        <mxCell id="LNJiqRa9cXeinh8oVEyr-3" value="&lt;b style=&quot;&quot;&gt;&lt;font color=&quot;#cc6600&quot;&gt;失败&lt;/font&gt;&lt;/b&gt;" style="rounded=1;whiteSpace=wrap;html=1;shadow=0;sketch=1;fontSize=24;fontColor=#000000;fillColor=#fa6800;strokeColor=#C73500;" vertex="1" parent="1">
          <mxGeometry x="1560" y="870" width="90" height="50" as="geometry" />
        </mxCell>
        <mxCell id="LNJiqRa9cXeinh8oVEyr-5" style="edgeStyle=orthogonalEdgeStyle;rounded=0;orthogonalLoop=1;jettySize=auto;html=1;fontSize=18;fontColor=#4D4D4D;strokeColor=#000000;strokeWidth=3;entryX=0.5;entryY=0;entryDx=0;entryDy=0;" edge="1" parent="1" source="LNJiqRa9cXeinh8oVEyr-4" target="LNJiqRa9cXeinh8oVEyr-7">
          <mxGeometry relative="1" as="geometry">
            <mxPoint x="1865" y="1110" as="targetPoint" />
          </mxGeometry>
        </mxCell>
        <mxCell id="LNJiqRa9cXeinh8oVEyr-11" style="edgeStyle=orthogonalEdgeStyle;rounded=0;orthogonalLoop=1;jettySize=auto;html=1;fontSize=24;fontColor=#003300;strokeColor=#000000;strokeWidth=3;entryX=0.5;entryY=0;entryDx=0;entryDy=0;" edge="1" parent="1" source="LNJiqRa9cXeinh8oVEyr-4" target="TkZEyQPmdqDxaD4uM_FP-1">
          <mxGeometry relative="1" as="geometry">
            <mxPoint x="2190" y="925" as="targetPoint" />
          </mxGeometry>
        </mxCell>
        <mxCell id="LNJiqRa9cXeinh8oVEyr-4" value="&lt;b style=&quot;&quot;&gt;&lt;font color=&quot;#4d4d4d&quot;&gt;判断是否需要扩容&lt;/font&gt;&lt;/b&gt;" style="rhombus;whiteSpace=wrap;html=1;rounded=1;shadow=1;sketch=1;fontSize=24;fontColor=#ffffff;fillColor=#008a00;strokeColor=#005700;" vertex="1" parent="1">
          <mxGeometry x="1730" y="870" width="270" height="110" as="geometry" />
        </mxCell>
        <mxCell id="LNJiqRa9cXeinh8oVEyr-6" value="&lt;b style=&quot;&quot;&gt;&lt;font color=&quot;#ff0000&quot;&gt;需要扩容&lt;/font&gt;&lt;/b&gt;" style="rounded=1;whiteSpace=wrap;html=1;shadow=0;sketch=1;fontSize=24;fontColor=#ffffff;fillColor=#6d8764;strokeColor=#3A5431;" vertex="1" parent="1">
          <mxGeometry x="1730" y="1010" width="120" height="50" as="geometry" />
        </mxCell>
        <mxCell id="LNJiqRa9cXeinh8oVEyr-8" style="edgeStyle=orthogonalEdgeStyle;rounded=0;orthogonalLoop=1;jettySize=auto;html=1;fontSize=18;fontColor=#00994D;strokeColor=#000000;strokeWidth=3;entryX=0.5;entryY=0;entryDx=0;entryDy=0;" edge="1" parent="1" source="LNJiqRa9cXeinh8oVEyr-7" target="LNJiqRa9cXeinh8oVEyr-10">
          <mxGeometry relative="1" as="geometry">
            <mxPoint x="1865" y="1320" as="targetPoint" />
          </mxGeometry>
        </mxCell>
        <mxCell id="TkZEyQPmdqDxaD4uM_FP-2" style="edgeStyle=orthogonalEdgeStyle;rounded=0;orthogonalLoop=1;jettySize=auto;html=1;fontSize=24;fontColor=#003300;strokeColor=#000000;strokeWidth=3;" edge="1" parent="1" source="LNJiqRa9cXeinh8oVEyr-7" target="TkZEyQPmdqDxaD4uM_FP-1">
          <mxGeometry relative="1" as="geometry" />
        </mxCell>
        <mxCell id="LNJiqRa9cXeinh8oVEyr-7" value="&lt;font color=&quot;#000000&quot;&gt;CAS:cellsBusy&lt;/font&gt;" style="rhombus;whiteSpace=wrap;html=1;rounded=1;shadow=1;sketch=1;fontSize=24;fontColor=#ffffff;fillColor=#008a00;strokeColor=#005700;" vertex="1" parent="1">
          <mxGeometry x="1730" y="1180" width="270" height="110" as="geometry" />
        </mxCell>
        <mxCell id="LNJiqRa9cXeinh8oVEyr-9" value="&lt;b style=&quot;&quot;&gt;&lt;font color=&quot;#cc6600&quot;&gt;成功&lt;/font&gt;&lt;/b&gt;" style="rounded=1;whiteSpace=wrap;html=1;shadow=0;sketch=1;fontSize=24;fontColor=#000000;fillColor=#fa6800;strokeColor=#C73500;" vertex="1" parent="1">
          <mxGeometry x="1745" y="1330" width="90" height="50" as="geometry" />
        </mxCell>
        <mxCell id="TkZEyQPmdqDxaD4uM_FP-5" style="edgeStyle=orthogonalEdgeStyle;rounded=0;orthogonalLoop=1;jettySize=auto;html=1;fontSize=24;fontColor=#003300;strokeColor=#CC0000;strokeWidth=7;" edge="1" parent="1" source="LNJiqRa9cXeinh8oVEyr-10">
          <mxGeometry relative="1" as="geometry">
            <mxPoint x="2400" y="1230" as="targetPoint" />
          </mxGeometry>
        </mxCell>
        <mxCell id="LNJiqRa9cXeinh8oVEyr-10" value="&lt;font style=&quot;font-size: 24px;&quot; color=&quot;#003300&quot;&gt;&lt;b&gt;扩容:原数组2倍&lt;/b&gt;&lt;/font&gt;" style="rounded=1;whiteSpace=wrap;html=1;shadow=1;glass=0;sketch=1;fontSize=18;fontColor=#00994D;strokeColor=#B09500;fillColor=#999900;" vertex="1" parent="1">
          <mxGeometry x="1765" y="1430" width="200" height="90" as="geometry" />
        </mxCell>
        <mxCell id="LNJiqRa9cXeinh8oVEyr-12" value="&lt;b style=&quot;&quot;&gt;&lt;font color=&quot;#ff3333&quot;&gt;不扩容&lt;/font&gt;&lt;/b&gt;" style="rounded=1;whiteSpace=wrap;html=1;shadow=0;sketch=1;fontSize=24;fontColor=#ffffff;fillColor=#6d8764;strokeColor=#3A5431;" vertex="1" parent="1">
          <mxGeometry x="2020" y="860" width="120" height="50" as="geometry" />
        </mxCell>
        <mxCell id="TkZEyQPmdqDxaD4uM_FP-4" style="edgeStyle=orthogonalEdgeStyle;rounded=0;orthogonalLoop=1;jettySize=auto;html=1;fontSize=24;fontColor=#003300;strokeColor=#CC0000;strokeWidth=7;" edge="1" parent="1" source="TkZEyQPmdqDxaD4uM_FP-1">
          <mxGeometry relative="1" as="geometry">
            <mxPoint x="350" y="240" as="targetPoint" />
            <Array as="points">
              <mxPoint x="2400" y="1235" />
              <mxPoint x="2400" y="240" />
            </Array>
          </mxGeometry>
        </mxCell>
        <mxCell id="TkZEyQPmdqDxaD4uM_FP-1" value="&lt;font color=&quot;#003300&quot;&gt;&lt;b&gt;重新获取随机数h&lt;/b&gt;&lt;/font&gt;" style="rounded=1;whiteSpace=wrap;html=1;shadow=1;glass=0;sketch=1;fontSize=24;fontColor=#FF3333;strokeColor=#B09500;fillColor=#999900;" vertex="1" parent="1">
          <mxGeometry x="2150" y="1200" width="190" height="70" as="geometry" />
        </mxCell>
        <mxCell id="TkZEyQPmdqDxaD4uM_FP-3" value="&lt;b style=&quot;&quot;&gt;&lt;font color=&quot;#cc6600&quot;&gt;失败&lt;/font&gt;&lt;/b&gt;" style="rounded=1;whiteSpace=wrap;html=1;shadow=0;sketch=1;fontSize=24;fontColor=#000000;fillColor=#fa6800;strokeColor=#C73500;" vertex="1" parent="1">
          <mxGeometry x="2020" y="1170" width="90" height="50" as="geometry" />
        </mxCell>
      </root>
    </mxGraphModel>
  </diagram>
</mxfile>
